<svg xmlns="http://www.w3.org/2000/svg" viewBox="0 0 800 380" width="100%">
  <!-- Deep Dark Space Background -->
  <rect width="100%" height="100%" fill="#000000" />
  
  <!-- Grid Scanlines -->
  <defs>
    <pattern id="lines" width="100" height="4" patternUnits="userSpaceOnUse">
      <line x1="0" y1="0" x2="100" y2="0" stroke="#060606" stroke-width="1.5" />
    </pattern>
  </defs>
  <rect width="100%" height="100%" fill="url(#lines)" />
  
  <polygon points="352.0,64.0 320.0,80.0 320.0,45.0 352.0,29.0" fill="#002b42" opacity="0.85" />
  <polygon points="320.0,80.0 288.0,64.0 288.0,29.0 320.0,45.0" fill="#003d5c" opacity="0.85" />
  <polygon points="320.0,13.0 352.0,29.0 320.0,45.0 288.0,29.0" fill="#005580" opacity="0.9" />
  <polyline points="352.0,29.0 320.0,45.0 288.0,29.0" fill="none" stroke="#00a2f3" stroke-width="1.2" opacity="0.9" />
  <line x1="320.0" y1="45.0" x2="320.0" y2="80.0" stroke="#00a2f3" stroke-width="1.8" opacity="0.95" />
  <polygon points="320.0,80.0 288.0,96.0 288.0,93.0 320.0,77.0" fill="#020202" opacity="0.85" />
  <polygon points="288.0,96.0 256.0,80.0 256.0,77.0 288.0,93.0" fill="#030303" opacity="0.85" />
  <polygon points="288.0,61.0 320.0,77.0 288.0,93.0 256.0,77.0" fill="#050505" opacity="0.9" />
  <polygon points="288.0,61.0 320.0,77.0 288.0,93.0 256.0,77.0" fill="none" stroke="#0c0c0c" stroke-width="0.5" opacity="0.4" />
  <polygon points="384.0,80.0 352.0,96.0 352.0,93.0 384.0,77.0" fill="#020202" opacity="0.85" />
  <polygon points="352.0,96.0 320.0,80.0 320.0,77.0 352.0,93.0" fill="#030303" opacity="0.85" />
  <polygon points="352.0,61.0 384.0,77.0 352.0,93.0 320.0,77.0" fill="#050505" opacity="0.9" />
  <polygon points="352.0,61.0 384.0,77.0 352.0,93.0 320.0,77.0" fill="none" stroke="#0c0c0c" stroke-width="0.5" opacity="0.4" />
  <polygon points="288.0,96.0 256.0,112.0 256.0,97.0 288.0,81.0" fill="#00131f" opacity="0.85" />
  <polygon points="256.0,112.0 224.0,96.0 224.0,81.0 256.0,97.0" fill="#001e30" opacity="0.85" />
  <polygon points="256.0,65.0 288.0,81.0 256.0,97.0 224.0,81.0" fill="#002d42" opacity="0.9" />
  <polyline points="288.0,81.0 256.0,97.0 224.0,81.0" fill="none" stroke="#005f8c" stroke-width="1.2" opacity="0.9" />
  <line x1="256.0" y1="97.0" x2="256.0" y2="112.0" stroke="#005f8c" stroke-width="1.8" opacity="0.95" />
  <polygon points="352.0,96.0 320.0,112.0 320.0,97.0 352.0,81.0" fill="#00131f" opacity="0.85" />
  <polygon points="320.0,112.0 288.0,96.0 288.0,81.0 320.0,97.0" fill="#001e30" opacity="0.85" />
  <polygon points="320.0,65.0 352.0,81.0 320.0,97.0 288.0,81.0" fill="#002d42" opacity="0.9" />
  <polyline points="352.0,81.0 320.0,97.0 288.0,81.0" fill="none" stroke="#005f8c" stroke-width="1.2" opacity="0.9" />
  <line x1="320.0" y1="97.0" x2="320.0" y2="112.0" stroke="#005f8c" stroke-width="1.8" opacity="0.95" />
  <polygon points="416.0,96.0 384.0,112.0 384.0,109.0 416.0,93.0" fill="#020202" opacity="0.85" />
  <polygon points="384.0,112.0 352.0,96.0 352.0,93.0 384.0,109.0" fill="#030303" opacity="0.85" />
  <polygon points="384.0,77.0 416.0,93.0 384.0,109.0 352.0,93.0" fill="#050505" opacity="0.9" />
  <polygon points="384.0,77.0 416.0,93.0 384.0,109.0 352.0,93.0" fill="none" stroke="#0c0c0c" stroke-width="0.5" opacity="0.4" />
  <polygon points="256.0,112.0 224.0,128.0 224.0,125.0 256.0,109.0" fill="#020202" opacity="0.85" />
  <polygon points="224.0,128.0 192.0,112.0 192.0,109.0 224.0,125.0" fill="#030303" opacity="0.85" />
  <polygon points="224.0,93.0 256.0,109.0 224.0,125.0 192.0,109.0" fill="#050505" opacity="0.9" />
  <polygon points="224.0,93.0 256.0,109.0 224.0,125.0 192.0,109.0" fill="none" stroke="#0c0c0c" stroke-width="0.5" opacity="0.4" />
  <polygon points="320.0,112.0 288.0,128.0 288.0,125.0 320.0,109.0" fill="#020202" opacity="0.85" />
  <polygon points="288.0,128.0 256.0,112.0 256.0,109.0 288.0,125.0" fill="#030303" opacity="0.85" />
  <polygon points="288.0,93.0 320.0,109.0 288.0,125.0 256.0,109.0" fill="#050505" opacity="0.9" />
  <polygon points="288.0,93.0 320.0,109.0 288.0,125.0 256.0,109.0" fill="none" stroke="#0c0c0c" stroke-width="0.5" opacity="0.4" />
  <polygon points="384.0,112.0 352.0,128.0 352.0,93.0 384.0,77.0" fill="#002b42" opacity="0.85" />
  <polygon points="352.0,128.0 320.0,112.0 320.0,77.0 352.0,93.0" fill="#003d5c" opacity="0.85" />
  <polygon points="352.0,61.0 384.0,77.0 352.0,93.0 320.0,77.0" fill="#005580" opacity="0.9" />
  <polyline points="384.0,77.0 352.0,93.0 320.0,77.0" fill="none" stroke="#00a2f3" stroke-width="1.2" opacity="0.9" />
  <line x1="352.0" y1="93.0" x2="352.0" y2="128.0" stroke="#00a2f3" stroke-width="1.8" opacity="0.95" />
  <polygon points="448.0,112.0 416.0,128.0 416.0,113.0 448.0,97.0" fill="#00131f" opacity="0.85" />
  <polygon points="416.0,128.0 384.0,112.0 384.0,97.0 416.0,113.0" fill="#001e30" opacity="0.85" />
  <polygon points="416.0,81.0 448.0,97.0 416.0,113.0 384.0,97.0" fill="#002d42" opacity="0.9" />
  <polyline points="448.0,97.0 416.0,113.0 384.0,97.0" fill="none" stroke="#005f8c" stroke-width="1.2" opacity="0.9" />
  <line x1="416.0" y1="113.0" x2="416.0" y2="128.0" stroke="#005f8c" stroke-width="1.8" opacity="0.95" />
  <polygon points="224.0,128.0 192.0,144.0 192.0,141.0 224.0,125.0" fill="#020202" opacity="0.85" />
  <polygon points="192.0,144.0 160.0,128.0 160.0,125.0 192.0,141.0" fill="#030303" opacity="0.85" />
  <polygon points="192.0,109.0 224.0,125.0 192.0,141.0 160.0,125.0" fill="#050505" opacity="0.9" />
  <polygon points="192.0,109.0 224.0,125.0 192.0,141.0 160.0,125.0" fill="none" stroke="#0c0c0c" stroke-width="0.5" opacity="0.4" />
  <polygon points="288.0,128.0 256.0,144.0 256.0,129.0 288.0,113.0" fill="#00131f" opacity="0.85" />
  <polygon points="256.0,144.0 224.0,128.0 224.0,113.0 256.0,129.0" fill="#001e30" opacity="0.85" />
  <polygon points="256.0,97.0 288.0,113.0 256.0,129.0 224.0,113.0" fill="#002d42" opacity="0.9" />
  <polyline points="288.0,113.0 256.0,129.0 224.0,113.0" fill="none" stroke="#005f8c" stroke-width="1.2" opacity="0.9" />
  <line x1="256.0" y1="129.0" x2="256.0" y2="144.0" stroke="#005f8c" stroke-width="1.8" opacity="0.95" />
  <polygon points="352.0,128.0 320.0,144.0 320.0,141.0 352.0,125.0" fill="#020202" opacity="0.85" />
  <polygon points="320.0,144.0 288.0,128.0 288.0,125.0 320.0,141.0" fill="#030303" opacity="0.85" />
  <polygon points="320.0,109.0 352.0,125.0 320.0,141.0 288.0,125.0" fill="#050505" opacity="0.9" />
  <polygon points="320.0,109.0 352.0,125.0 320.0,141.0 288.0,125.0" fill="none" stroke="#0c0c0c" stroke-width="0.5" opacity="0.4" />
  <polygon points="416.0,128.0 384.0,144.0 384.0,141.0 416.0,125.0" fill="#020202" opacity="0.85" />
  <polygon points="384.0,144.0 352.0,128.0 352.0,125.0 384.0,141.0" fill="#030303" opacity="0.85" />
  <polygon points="384.0,109.0 416.0,125.0 384.0,141.0 352.0,125.0" fill="#050505" opacity="0.9" />
  <polygon points="384.0,109.0 416.0,125.0 384.0,141.0 352.0,125.0" fill="none" stroke="#0c0c0c" stroke-width="0.5" opacity="0.4" />
  <polygon points="480.0,128.0 448.0,144.0 448.0,141.0 480.0,125.0" fill="#020202" opacity="0.85" />
  <polygon points="448.0,144.0 416.0,128.0 416.0,125.0 448.0,141.0" fill="#030303" opacity="0.85" />
  <polygon points="448.0,109.0 480.0,125.0 448.0,141.0 416.0,125.0" fill="#050505" opacity="0.9" />
  <polygon points="448.0,109.0 480.0,125.0 448.0,141.0 416.0,125.0" fill="none" stroke="#0c0c0c" stroke-width="0.5" opacity="0.4" />
  <polygon points="192.0,144.0 160.0,160.0 160.0,145.0 192.0,129.0" fill="#00131f" opacity="0.85" />
  <polygon points="160.0,160.0 128.0,144.0 128.0,129.0 160.0,145.0" fill="#001e30" opacity="0.85" />
  <polygon points="160.0,113.0 192.0,129.0 160.0,145.0 128.0,129.0" fill="#002d42" opacity="0.9" />
  <polyline points="192.0,129.0 160.0,145.0 128.0,129.0" fill="none" stroke="#005f8c" stroke-width="1.2" opacity="0.9" />
  <line x1="160.0" y1="145.0" x2="160.0" y2="160.0" stroke="#005f8c" stroke-width="1.8" opacity="0.95" />
  <polygon points="256.0,144.0 224.0,160.0 224.0,157.0 256.0,141.0" fill="#020202" opacity="0.85" />
  <polygon points="224.0,160.0 192.0,144.0 192.0,141.0 224.0,157.0" fill="#030303" opacity="0.85" />
  <polygon points="224.0,125.0 256.0,141.0 224.0,157.0 192.0,141.0" fill="#050505" opacity="0.9" />
  <polygon points="224.0,125.0 256.0,141.0 224.0,157.0 192.0,141.0" fill="none" stroke="#0c0c0c" stroke-width="0.5" opacity="0.4" />
  <polygon points="320.0,144.0 288.0,160.0 288.0,157.0 320.0,141.0" fill="#020202" opacity="0.85" />
  <polygon points="288.0,160.0 256.0,144.0 256.0,141.0 288.0,157.0" fill="#030303" opacity="0.85" />
  <polygon points="288.0,125.0 320.0,141.0 288.0,157.0 256.0,141.0" fill="#050505" opacity="0.9" />
  <polygon points="288.0,125.0 320.0,141.0 288.0,157.0 256.0,141.0" fill="none" stroke="#0c0c0c" stroke-width="0.5" opacity="0.4" />
  <polygon points="384.0,144.0 352.0,160.0 352.0,157.0 384.0,141.0" fill="#020202" opacity="0.85" />
  <polygon points="352.0,160.0 320.0,144.0 320.0,141.0 352.0,157.0" fill="#030303" opacity="0.85" />
  <polygon points="352.0,125.0 384.0,141.0 352.0,157.0 320.0,141.0" fill="#050505" opacity="0.9" />
  <polygon points="352.0,125.0 384.0,141.0 352.0,157.0 320.0,141.0" fill="none" stroke="#0c0c0c" stroke-width="0.5" opacity="0.4" />
  <polygon points="448.0,144.0 416.0,160.0 416.0,157.0 448.0,141.0" fill="#020202" opacity="0.85" />
  <polygon points="416.0,160.0 384.0,144.0 384.0,141.0 416.0,157.0" fill="#030303" opacity="0.85" />
  <polygon points="416.0,125.0 448.0,141.0 416.0,157.0 384.0,141.0" fill="#050505" opacity="0.9" />
  <polygon points="416.0,125.0 448.0,141.0 416.0,157.0 384.0,141.0" fill="none" stroke="#0c0c0c" stroke-width="0.5" opacity="0.4" />
  <polygon points="512.0,144.0 480.0,160.0 480.0,157.0 512.0,141.0" fill="#020202" opacity="0.85" />
  <polygon points="480.0,160.0 448.0,144.0 448.0,141.0 480.0,157.0" fill="#030303" opacity="0.85" />
  <polygon points="480.0,125.0 512.0,141.0 480.0,157.0 448.0,141.0" fill="#050505" opacity="0.9" />
  <polygon points="480.0,125.0 512.0,141.0 480.0,157.0 448.0,141.0" fill="none" stroke="#0c0c0c" stroke-width="0.5" opacity="0.4" />
  <polygon points="160.0,160.0 128.0,176.0 128.0,173.0 160.0,157.0" fill="#020202" opacity="0.85" />
  <polygon points="128.0,176.0 96.0,160.0 96.0,157.0 128.0,173.0" fill="#030303" opacity="0.85" />
  <polygon points="128.0,141.0 160.0,157.0 128.0,173.0 96.0,157.0" fill="#050505" opacity="0.9" />
  <polygon points="128.0,141.0 160.0,157.0 128.0,173.0 96.0,157.0" fill="none" stroke="#0c0c0c" stroke-width="0.5" opacity="0.4" />
  <polygon points="224.0,160.0 192.0,176.0 192.0,161.0 224.0,145.0" fill="#00131f" opacity="0.85" />
  <polygon points="192.0,176.0 160.0,160.0 160.0,145.0 192.0,161.0" fill="#001e30" opacity="0.85" />
  <polygon points="192.0,129.0 224.0,145.0 192.0,161.0 160.0,145.0" fill="#002d42" opacity="0.9" />
  <polyline points="224.0,145.0 192.0,161.0 160.0,145.0" fill="none" stroke="#005f8c" stroke-width="1.2" opacity="0.9" />
  <line x1="192.0" y1="161.0" x2="192.0" y2="176.0" stroke="#005f8c" stroke-width="1.8" opacity="0.95" />
  <polygon points="288.0,160.0 256.0,176.0 256.0,161.0 288.0,145.0" fill="#00131f" opacity="0.85" />
  <polygon points="256.0,176.0 224.0,160.0 224.0,145.0 256.0,161.0" fill="#001e30" opacity="0.85" />
  <polygon points="256.0,129.0 288.0,145.0 256.0,161.0 224.0,145.0" fill="#002d42" opacity="0.9" />
  <polyline points="288.0,145.0 256.0,161.0 224.0,145.0" fill="none" stroke="#005f8c" stroke-width="1.2" opacity="0.9" />
  <line x1="256.0" y1="161.0" x2="256.0" y2="176.0" stroke="#005f8c" stroke-width="1.8" opacity="0.95" />
  <polygon points="352.0,160.0 320.0,176.0 320.0,173.0 352.0,157.0" fill="#020202" opacity="0.85" />
  <polygon points="320.0,176.0 288.0,160.0 288.0,157.0 320.0,173.0" fill="#030303" opacity="0.85" />
  <polygon points="320.0,141.0 352.0,157.0 320.0,173.0 288.0,157.0" fill="#050505" opacity="0.9" />
  <polygon points="320.0,141.0 352.0,157.0 320.0,173.0 288.0,157.0" fill="none" stroke="#0c0c0c" stroke-width="0.5" opacity="0.4" />
  <polygon points="416.0,160.0 384.0,176.0 384.0,173.0 416.0,157.0" fill="#020202" opacity="0.85" />
  <polygon points="384.0,176.0 352.0,160.0 352.0,157.0 384.0,173.0" fill="#030303" opacity="0.85" />
  <polygon points="384.0,141.0 416.0,157.0 384.0,173.0 352.0,157.0" fill="#050505" opacity="0.9" />
  <polygon points="384.0,141.0 416.0,157.0 384.0,173.0 352.0,157.0" fill="none" stroke="#0c0c0c" stroke-width="0.5" opacity="0.4" />
  <polygon points="480.0,160.0 448.0,176.0 448.0,173.0 480.0,157.0" fill="#020202" opacity="0.85" />
  <polygon points="448.0,176.0 416.0,160.0 416.0,157.0 448.0,173.0" fill="#030303" opacity="0.85" />
  <polygon points="448.0,141.0 480.0,157.0 448.0,173.0 416.0,157.0" fill="#050505" opacity="0.9" />
  <polygon points="448.0,141.0 480.0,157.0 448.0,173.0 416.0,157.0" fill="none" stroke="#0c0c0c" stroke-width="0.5" opacity="0.4" />
  <polygon points="544.0,160.0 512.0,176.0 512.0,173.0 544.0,157.0" fill="#020202" opacity="0.85" />
  <polygon points="512.0,176.0 480.0,160.0 480.0,157.0 512.0,173.0" fill="#030303" opacity="0.85" />
  <polygon points="512.0,141.0 544.0,157.0 512.0,173.0 480.0,157.0" fill="#050505" opacity="0.9" />
  <polygon points="512.0,141.0 544.0,157.0 512.0,173.0 480.0,157.0" fill="none" stroke="#0c0c0c" stroke-width="0.5" opacity="0.4" />
  <polygon points="192.0,176.0 160.0,192.0 160.0,189.0 192.0,173.0" fill="#020202" opacity="0.85" />
  <polygon points="160.0,192.0 128.0,176.0 128.0,173.0 160.0,189.0" fill="#030303" opacity="0.85" />
  <polygon points="160.0,157.0 192.0,173.0 160.0,189.0 128.0,173.0" fill="#050505" opacity="0.9" />
  <polygon points="160.0,157.0 192.0,173.0 160.0,189.0 128.0,173.0" fill="none" stroke="#0c0c0c" stroke-width="0.5" opacity="0.4" />
  <polygon points="256.0,176.0 224.0,192.0 224.0,189.0 256.0,173.0" fill="#020202" opacity="0.85" />
  <polygon points="224.0,192.0 192.0,176.0 192.0,173.0 224.0,189.0" fill="#030303" opacity="0.85" />
  <polygon points="224.0,157.0 256.0,173.0 224.0,189.0 192.0,173.0" fill="#050505" opacity="0.9" />
  <polygon points="224.0,157.0 256.0,173.0 224.0,189.0 192.0,173.0" fill="none" stroke="#0c0c0c" stroke-width="0.5" opacity="0.4" />
  <polygon points="320.0,176.0 288.0,192.0 288.0,189.0 320.0,173.0" fill="#020202" opacity="0.85" />
  <polygon points="288.0,192.0 256.0,176.0 256.0,173.0 288.0,189.0" fill="#030303" opacity="0.85" />
  <polygon points="288.0,157.0 320.0,173.0 288.0,189.0 256.0,173.0" fill="#050505" opacity="0.9" />
  <polygon points="288.0,157.0 320.0,173.0 288.0,189.0 256.0,173.0" fill="none" stroke="#0c0c0c" stroke-width="0.5" opacity="0.4" />
  <polygon points="384.0,176.0 352.0,192.0 352.0,157.0 384.0,141.0" fill="#002b42" opacity="0.85" />
  <polygon points="352.0,192.0 320.0,176.0 320.0,141.0 352.0,157.0" fill="#003d5c" opacity="0.85" />
  <polygon points="352.0,125.0 384.0,141.0 352.0,157.0 320.0,141.0" fill="#005580" opacity="0.9" />
  <polyline points="384.0,141.0 352.0,157.0 320.0,141.0" fill="none" stroke="#00a2f3" stroke-width="1.2" opacity="0.9" />
  <line x1="352.0" y1="157.0" x2="352.0" y2="192.0" stroke="#00a2f3" stroke-width="1.8" opacity="0.95" />
  <polygon points="448.0,176.0 416.0,192.0 416.0,189.0 448.0,173.0" fill="#020202" opacity="0.85" />
  <polygon points="416.0,192.0 384.0,176.0 384.0,173.0 416.0,189.0" fill="#030303" opacity="0.85" />
  <polygon points="416.0,157.0 448.0,173.0 416.0,189.0 384.0,173.0" fill="#050505" opacity="0.9" />
  <polygon points="416.0,157.0 448.0,173.0 416.0,189.0 384.0,173.0" fill="none" stroke="#0c0c0c" stroke-width="0.5" opacity="0.4" />
  <polygon points="512.0,176.0 480.0,192.0 480.0,189.0 512.0,173.0" fill="#020202" opacity="0.85" />
  <polygon points="480.0,192.0 448.0,176.0 448.0,173.0 480.0,189.0" fill="#030303" opacity="0.85" />
  <polygon points="480.0,157.0 512.0,173.0 480.0,189.0 448.0,173.0" fill="#050505" opacity="0.9" />
  <polygon points="480.0,157.0 512.0,173.0 480.0,189.0 448.0,173.0" fill="none" stroke="#0c0c0c" stroke-width="0.5" opacity="0.4" />
  <polygon points="576.0,176.0 544.0,192.0 544.0,189.0 576.0,173.0" fill="#020202" opacity="0.85" />
  <polygon points="544.0,192.0 512.0,176.0 512.0,173.0 544.0,189.0" fill="#030303" opacity="0.85" />
  <polygon points="544.0,157.0 576.0,173.0 544.0,189.0 512.0,173.0" fill="#050505" opacity="0.9" />
  <polygon points="544.0,157.0 576.0,173.0 544.0,189.0 512.0,173.0" fill="none" stroke="#0c0c0c" stroke-width="0.5" opacity="0.4" />
  <polygon points="224.0,192.0 192.0,208.0 192.0,205.0 224.0,189.0" fill="#020202" opacity="0.85" />
  <polygon points="192.0,208.0 160.0,192.0 160.0,189.0 192.0,205.0" fill="#030303" opacity="0.85" />
  <polygon points="192.0,173.0 224.0,189.0 192.0,205.0 160.0,189.0" fill="#050505" opacity="0.9" />
  <polygon points="192.0,173.0 224.0,189.0 192.0,205.0 160.0,189.0" fill="none" stroke="#0c0c0c" stroke-width="0.5" opacity="0.4" />
  <polygon points="288.0,192.0 256.0,208.0 256.0,205.0 288.0,189.0" fill="#020202" opacity="0.85" />
  <polygon points="256.0,208.0 224.0,192.0 224.0,189.0 256.0,205.0" fill="#030303" opacity="0.85" />
  <polygon points="256.0,173.0 288.0,189.0 256.0,205.0 224.0,189.0" fill="#050505" opacity="0.9" />
  <polygon points="256.0,173.0 288.0,189.0 256.0,205.0 224.0,189.0" fill="none" stroke="#0c0c0c" stroke-width="0.5" opacity="0.4" />
  <polygon points="352.0,192.0 320.0,208.0 320.0,205.0 352.0,189.0" fill="#020202" opacity="0.85" />
  <polygon points="320.0,208.0 288.0,192.0 288.0,189.0 320.0,205.0" fill="#030303" opacity="0.85" />
  <polygon points="320.0,173.0 352.0,189.0 320.0,205.0 288.0,189.0" fill="#050505" opacity="0.9" />
  <polygon points="320.0,173.0 352.0,189.0 320.0,205.0 288.0,189.0" fill="none" stroke="#0c0c0c" stroke-width="0.5" opacity="0.4" />
  <polygon points="416.0,192.0 384.0,208.0 384.0,205.0 416.0,189.0" fill="#020202" opacity="0.85" />
  <polygon points="384.0,208.0 352.0,192.0 352.0,189.0 384.0,205.0" fill="#030303" opacity="0.85" />
  <polygon points="384.0,173.0 416.0,189.0 384.0,205.0 352.0,189.0" fill="#050505" opacity="0.9" />
  <polygon points="384.0,173.0 416.0,189.0 384.0,205.0 352.0,189.0" fill="none" stroke="#0c0c0c" stroke-width="0.5" opacity="0.4" />
  <polygon points="480.0,192.0 448.0,208.0 448.0,205.0 480.0,189.0" fill="#020202" opacity="0.85" />
  <polygon points="448.0,208.0 416.0,192.0 416.0,189.0 448.0,205.0" fill="#030303" opacity="0.85" />
  <polygon points="448.0,173.0 480.0,189.0 448.0,205.0 416.0,189.0" fill="#050505" opacity="0.9" />
  <polygon points="448.0,173.0 480.0,189.0 448.0,205.0 416.0,189.0" fill="none" stroke="#0c0c0c" stroke-width="0.5" opacity="0.4" />
  <polygon points="544.0,192.0 512.0,208.0 512.0,205.0 544.0,189.0" fill="#020202" opacity="0.85" />
  <polygon points="512.0,208.0 480.0,192.0 480.0,189.0 512.0,205.0" fill="#030303" opacity="0.85" />
  <polygon points="512.0,173.0 544.0,189.0 512.0,205.0 480.0,189.0" fill="#050505" opacity="0.9" />
  <polygon points="512.0,173.0 544.0,189.0 512.0,205.0 480.0,189.0" fill="none" stroke="#0c0c0c" stroke-width="0.5" opacity="0.4" />
  <polygon points="608.0,192.0 576.0,208.0 576.0,205.0 608.0,189.0" fill="#020202" opacity="0.85" />
  <polygon points="576.0,208.0 544.0,192.0 544.0,189.0 576.0,205.0" fill="#030303" opacity="0.85" />
  <polygon points="576.0,173.0 608.0,189.0 576.0,205.0 544.0,189.0" fill="#050505" opacity="0.9" />
  <polygon points="576.0,173.0 608.0,189.0 576.0,205.0 544.0,189.0" fill="none" stroke="#0c0c0c" stroke-width="0.5" opacity="0.4" />
  <polygon points="256.0,208.0 224.0,224.0 224.0,189.0 256.0,173.0" fill="#002b42" opacity="0.85" />
  <polygon points="224.0,224.0 192.0,208.0 192.0,173.0 224.0,189.0" fill="#003d5c" opacity="0.85" />
  <polygon points="224.0,157.0 256.0,173.0 224.0,189.0 192.0,173.0" fill="#005580" opacity="0.9" />
  <polyline points="256.0,173.0 224.0,189.0 192.0,173.0" fill="none" stroke="#00a2f3" stroke-width="1.2" opacity="0.9" />
  <line x1="224.0" y1="189.0" x2="224.0" y2="224.0" stroke="#00a2f3" stroke-width="1.8" opacity="0.95" />
  <polygon points="320.0,208.0 288.0,224.0 288.0,221.0 320.0,205.0" fill="#020202" opacity="0.85" />
  <polygon points="288.0,224.0 256.0,208.0 256.0,205.0 288.0,221.0" fill="#030303" opacity="0.85" />
  <polygon points="288.0,189.0 320.0,205.0 288.0,221.0 256.0,205.0" fill="#050505" opacity="0.9" />
  <polygon points="288.0,189.0 320.0,205.0 288.0,221.0 256.0,205.0" fill="none" stroke="#0c0c0c" stroke-width="0.5" opacity="0.4" />
  <polygon points="384.0,208.0 352.0,224.0 352.0,221.0 384.0,205.0" fill="#020202" opacity="0.85" />
  <polygon points="352.0,224.0 320.0,208.0 320.0,205.0 352.0,221.0" fill="#030303" opacity="0.85" />
  <polygon points="352.0,189.0 384.0,205.0 352.0,221.0 320.0,205.0" fill="#050505" opacity="0.9" />
  <polygon points="352.0,189.0 384.0,205.0 352.0,221.0 320.0,205.0" fill="none" stroke="#0c0c0c" stroke-width="0.5" opacity="0.4" />
  <polygon points="448.0,208.0 416.0,224.0 416.0,189.0 448.0,173.0" fill="#002b42" opacity="0.85" />
  <polygon points="416.0,224.0 384.0,208.0 384.0,173.0 416.0,189.0" fill="#003d5c" opacity="0.85" />
  <polygon points="416.0,157.0 448.0,173.0 416.0,189.0 384.0,173.0" fill="#005580" opacity="0.9" />
  <polyline points="448.0,173.0 416.0,189.0 384.0,173.0" fill="none" stroke="#00a2f3" stroke-width="1.2" opacity="0.9" />
  <line x1="416.0" y1="189.0" x2="416.0" y2="224.0" stroke="#00a2f3" stroke-width="1.8" opacity="0.95" />
  <polygon points="512.0,208.0 480.0,224.0 480.0,221.0 512.0,205.0" fill="#020202" opacity="0.85" />
  <polygon points="480.0,224.0 448.0,208.0 448.0,205.0 480.0,221.0" fill="#030303" opacity="0.85" />
  <polygon points="480.0,189.0 512.0,205.0 480.0,221.0 448.0,205.0" fill="#050505" opacity="0.9" />
  <polygon points="480.0,189.0 512.0,205.0 480.0,221.0 448.0,205.0" fill="none" stroke="#0c0c0c" stroke-width="0.5" opacity="0.4" />
  <polygon points="576.0,208.0 544.0,224.0 544.0,189.0 576.0,173.0" fill="#002b42" opacity="0.85" />
  <polygon points="544.0,224.0 512.0,208.0 512.0,173.0 544.0,189.0" fill="#003d5c" opacity="0.85" />
  <polygon points="544.0,157.0 576.0,173.0 544.0,189.0 512.0,173.0" fill="#005580" opacity="0.9" />
  <polyline points="576.0,173.0 544.0,189.0 512.0,173.0" fill="none" stroke="#00a2f3" stroke-width="1.2" opacity="0.9" />
  <line x1="544.0" y1="189.0" x2="544.0" y2="224.0" stroke="#00a2f3" stroke-width="1.8" opacity="0.95" />
  <polygon points="640.0,208.0 608.0,224.0 608.0,221.0 640.0,205.0" fill="#020202" opacity="0.85" />
  <polygon points="608.0,224.0 576.0,208.0 576.0,205.0 608.0,221.0" fill="#030303" opacity="0.85" />
  <polygon points="608.0,189.0 640.0,205.0 608.0,221.0 576.0,205.0" fill="#050505" opacity="0.9" />
  <polygon points="608.0,189.0 640.0,205.0 608.0,221.0 576.0,205.0" fill="none" stroke="#0c0c0c" stroke-width="0.5" opacity="0.4" />
  <polygon points="288.0,224.0 256.0,240.0 256.0,237.0 288.0,221.0" fill="#020202" opacity="0.85" />
  <polygon points="256.0,240.0 224.0,224.0 224.0,221.0 256.0,237.0" fill="#030303" opacity="0.85" />
  <polygon points="256.0,205.0 288.0,221.0 256.0,237.0 224.0,221.0" fill="#050505" opacity="0.9" />
  <polygon points="256.0,205.0 288.0,221.0 256.0,237.0 224.0,221.0" fill="none" stroke="#0c0c0c" stroke-width="0.5" opacity="0.4" />
  <polygon points="352.0,224.0 320.0,240.0 320.0,237.0 352.0,221.0" fill="#020202" opacity="0.85" />
  <polygon points="320.0,240.0 288.0,224.0 288.0,221.0 320.0,237.0" fill="#030303" opacity="0.85" />
  <polygon points="320.0,205.0 352.0,221.0 320.0,237.0 288.0,221.0" fill="#050505" opacity="0.9" />
  <polygon points="320.0,205.0 352.0,221.0 320.0,237.0 288.0,221.0" fill="none" stroke="#0c0c0c" stroke-width="0.5" opacity="0.4" />
  <polygon points="416.0,224.0 384.0,240.0 384.0,237.0 416.0,221.0" fill="#020202" opacity="0.85" />
  <polygon points="384.0,240.0 352.0,224.0 352.0,221.0 384.0,237.0" fill="#030303" opacity="0.85" />
  <polygon points="384.0,205.0 416.0,221.0 384.0,237.0 352.0,221.0" fill="#050505" opacity="0.9" />
  <polygon points="384.0,205.0 416.0,221.0 384.0,237.0 352.0,221.0" fill="none" stroke="#0c0c0c" stroke-width="0.5" opacity="0.4" />
  <polygon points="480.0,224.0 448.0,240.0 448.0,225.0 480.0,209.0" fill="#00131f" opacity="0.85" />
  <polygon points="448.0,240.0 416.0,224.0 416.0,209.0 448.0,225.0" fill="#001e30" opacity="0.85" />
  <polygon points="448.0,193.0 480.0,209.0 448.0,225.0 416.0,209.0" fill="#002d42" opacity="0.9" />
  <polyline points="480.0,209.0 448.0,225.0 416.0,209.0" fill="none" stroke="#005f8c" stroke-width="1.2" opacity="0.9" />
  <line x1="448.0" y1="225.0" x2="448.0" y2="240.0" stroke="#005f8c" stroke-width="1.8" opacity="0.95" />
  <polygon points="544.0,224.0 512.0,240.0 512.0,237.0 544.0,221.0" fill="#020202" opacity="0.85" />
  <polygon points="512.0,240.0 480.0,224.0 480.0,221.0 512.0,237.0" fill="#030303" opacity="0.85" />
  <polygon points="512.0,205.0 544.0,221.0 512.0,237.0 480.0,221.0" fill="#050505" opacity="0.9" />
  <polygon points="512.0,205.0 544.0,221.0 512.0,237.0 480.0,221.0" fill="none" stroke="#0c0c0c" stroke-width="0.5" opacity="0.4" />
  <polygon points="608.0,224.0 576.0,240.0 576.0,205.0 608.0,189.0" fill="#002b42" opacity="0.85" />
  <polygon points="576.0,240.0 544.0,224.0 544.0,189.0 576.0,205.0" fill="#003d5c" opacity="0.85" />
  <polygon points="576.0,173.0 608.0,189.0 576.0,205.0 544.0,189.0" fill="#005580" opacity="0.9" />
  <polyline points="608.0,189.0 576.0,205.0 544.0,189.0" fill="none" stroke="#00a2f3" stroke-width="1.2" opacity="0.9" />
  <line x1="576.0" y1="205.0" x2="576.0" y2="240.0" stroke="#00a2f3" stroke-width="1.8" opacity="0.95" />
  <polygon points="672.0,224.0 640.0,240.0 640.0,175.0 672.0,159.0" fill="#005f9e" opacity="0.85" />
  <polygon points="640.0,240.0 608.0,224.0 608.0,159.0 640.0,175.0" fill="#0077c2" opacity="0.85" />
  <polygon points="640.0,143.0 672.0,159.0 640.0,175.0 608.0,159.0" fill="#00d4ff" opacity="0.9" />
  <polyline points="672.0,159.0 640.0,175.0 608.0,159.0" fill="none" stroke="#5cf0ff" stroke-width="1.2" opacity="0.9" />
  <line x1="640.0" y1="175.0" x2="640.0" y2="240.0" stroke="#5cf0ff" stroke-width="1.8" opacity="0.95" />
  <polygon points="320.0,240.0 288.0,256.0 288.0,253.0 320.0,237.0" fill="#020202" opacity="0.85" />
  <polygon points="288.0,256.0 256.0,240.0 256.0,237.0 288.0,253.0" fill="#030303" opacity="0.85" />
  <polygon points="288.0,221.0 320.0,237.0 288.0,253.0 256.0,237.0" fill="#050505" opacity="0.9" />
  <polygon points="288.0,221.0 320.0,237.0 288.0,253.0 256.0,237.0" fill="none" stroke="#0c0c0c" stroke-width="0.5" opacity="0.4" />
  <polygon points="384.0,240.0 352.0,256.0 352.0,253.0 384.0,237.0" fill="#020202" opacity="0.85" />
  <polygon points="352.0,256.0 320.0,240.0 320.0,237.0 352.0,253.0" fill="#030303" opacity="0.85" />
  <polygon points="352.0,221.0 384.0,237.0 352.0,253.0 320.0,237.0" fill="#050505" opacity="0.9" />
  <polygon points="352.0,221.0 384.0,237.0 352.0,253.0 320.0,237.0" fill="none" stroke="#0c0c0c" stroke-width="0.5" opacity="0.4" />
  <polygon points="448.0,240.0 416.0,256.0 416.0,253.0 448.0,237.0" fill="#020202" opacity="0.85" />
  <polygon points="416.0,256.0 384.0,240.0 384.0,237.0 416.0,253.0" fill="#030303" opacity="0.85" />
  <polygon points="416.0,221.0 448.0,237.0 416.0,253.0 384.0,237.0" fill="#050505" opacity="0.9" />
  <polygon points="416.0,221.0 448.0,237.0 416.0,253.0 384.0,237.0" fill="none" stroke="#0c0c0c" stroke-width="0.5" opacity="0.4" />
  <polygon points="512.0,240.0 480.0,256.0 480.0,253.0 512.0,237.0" fill="#020202" opacity="0.85" />
  <polygon points="480.0,256.0 448.0,240.0 448.0,237.0 480.0,253.0" fill="#030303" opacity="0.85" />
  <polygon points="480.0,221.0 512.0,237.0 480.0,253.0 448.0,237.0" fill="#050505" opacity="0.9" />
  <polygon points="480.0,221.0 512.0,237.0 480.0,253.0 448.0,237.0" fill="none" stroke="#0c0c0c" stroke-width="0.5" opacity="0.4" />
  <polygon points="576.0,240.0 544.0,256.0 544.0,253.0 576.0,237.0" fill="#020202" opacity="0.85" />
  <polygon points="544.0,256.0 512.0,240.0 512.0,237.0 544.0,253.0" fill="#030303" opacity="0.85" />
  <polygon points="544.0,221.0 576.0,237.0 544.0,253.0 512.0,237.0" fill="#050505" opacity="0.9" />
  <polygon points="544.0,221.0 576.0,237.0 544.0,253.0 512.0,237.0" fill="none" stroke="#0c0c0c" stroke-width="0.5" opacity="0.4" />
  <polygon points="640.0,240.0 608.0,256.0 608.0,253.0 640.0,237.0" fill="#020202" opacity="0.85" />
  <polygon points="608.0,256.0 576.0,240.0 576.0,237.0 608.0,253.0" fill="#030303" opacity="0.85" />
  <polygon points="608.0,221.0 640.0,237.0 608.0,253.0 576.0,237.0" fill="#050505" opacity="0.9" />
  <polygon points="608.0,221.0 640.0,237.0 608.0,253.0 576.0,237.0" fill="none" stroke="#0c0c0c" stroke-width="0.5" opacity="0.4" />
  <polygon points="704.0,240.0 672.0,256.0 672.0,253.0 704.0,237.0" fill="#020202" opacity="0.85" />
  <polygon points="672.0,256.0 640.0,240.0 640.0,237.0 672.0,253.0" fill="#030303" opacity="0.85" />
  <polygon points="672.0,221.0 704.0,237.0 672.0,253.0 640.0,237.0" fill="#050505" opacity="0.9" />
  <polygon points="672.0,221.0 704.0,237.0 672.0,253.0 640.0,237.0" fill="none" stroke="#0c0c0c" stroke-width="0.5" opacity="0.4" />
  <polygon points="352.0,256.0 320.0,272.0 320.0,269.0 352.0,253.0" fill="#020202" opacity="0.85" />
  <polygon points="320.0,272.0 288.0,256.0 288.0,253.0 320.0,269.0" fill="#030303" opacity="0.85" />
  <polygon points="320.0,237.0 352.0,253.0 320.0,269.0 288.0,253.0" fill="#050505" opacity="0.9" />
  <polygon points="320.0,237.0 352.0,253.0 320.0,269.0 288.0,253.0" fill="none" stroke="#0c0c0c" stroke-width="0.5" opacity="0.4" />
  <polygon points="416.0,256.0 384.0,272.0 384.0,257.0 416.0,241.0" fill="#00131f" opacity="0.85" />
  <polygon points="384.0,272.0 352.0,256.0 352.0,241.0 384.0,257.0" fill="#001e30" opacity="0.85" />
  <polygon points="384.0,225.0 416.0,241.0 384.0,257.0 352.0,241.0" fill="#002d42" opacity="0.9" />
  <polyline points="416.0,241.0 384.0,257.0 352.0,241.0" fill="none" stroke="#005f8c" stroke-width="1.2" opacity="0.9" />
  <line x1="384.0" y1="257.0" x2="384.0" y2="272.0" stroke="#005f8c" stroke-width="1.8" opacity="0.95" />
  <polygon points="480.0,256.0 448.0,272.0 448.0,269.0 480.0,253.0" fill="#020202" opacity="0.85" />
  <polygon points="448.0,272.0 416.0,256.0 416.0,253.0 448.0,269.0" fill="#030303" opacity="0.85" />
  <polygon points="448.0,237.0 480.0,253.0 448.0,269.0 416.0,253.0" fill="#050505" opacity="0.9" />
  <polygon points="448.0,237.0 480.0,253.0 448.0,269.0 416.0,253.0" fill="none" stroke="#0c0c0c" stroke-width="0.5" opacity="0.4" />
  <polygon points="544.0,256.0 512.0,272.0 512.0,269.0 544.0,253.0" fill="#020202" opacity="0.85" />
  <polygon points="512.0,272.0 480.0,256.0 480.0,253.0 512.0,269.0" fill="#030303" opacity="0.85" />
  <polygon points="512.0,237.0 544.0,253.0 512.0,269.0 480.0,253.0" fill="#050505" opacity="0.9" />
  <polygon points="512.0,237.0 544.0,253.0 512.0,269.0 480.0,253.0" fill="none" stroke="#0c0c0c" stroke-width="0.5" opacity="0.4" />
  <polygon points="608.0,256.0 576.0,272.0 576.0,269.0 608.0,253.0" fill="#020202" opacity="0.85" />
  <polygon points="576.0,272.0 544.0,256.0 544.0,253.0 576.0,269.0" fill="#030303" opacity="0.85" />
  <polygon points="576.0,237.0 608.0,253.0 576.0,269.0 544.0,253.0" fill="#050505" opacity="0.9" />
  <polygon points="576.0,237.0 608.0,253.0 576.0,269.0 544.0,253.0" fill="none" stroke="#0c0c0c" stroke-width="0.5" opacity="0.4" />
  <polygon points="672.0,256.0 640.0,272.0 640.0,269.0 672.0,253.0" fill="#020202" opacity="0.85" />
  <polygon points="640.0,272.0 608.0,256.0 608.0,253.0 640.0,269.0" fill="#030303" opacity="0.85" />
  <polygon points="640.0,237.0 672.0,253.0 640.0,269.0 608.0,253.0" fill="#050505" opacity="0.9" />
  <polygon points="640.0,237.0 672.0,253.0 640.0,269.0 608.0,253.0" fill="none" stroke="#0c0c0c" stroke-width="0.5" opacity="0.4" />
  <polygon points="384.0,272.0 352.0,288.0 352.0,285.0 384.0,269.0" fill="#020202" opacity="0.85" />
  <polygon points="352.0,288.0 320.0,272.0 320.0,269.0 352.0,285.0" fill="#030303" opacity="0.85" />
  <polygon points="352.0,253.0 384.0,269.0 352.0,285.0 320.0,269.0" fill="#050505" opacity="0.9" />
  <polygon points="352.0,253.0 384.0,269.0 352.0,285.0 320.0,269.0" fill="none" stroke="#0c0c0c" stroke-width="0.5" opacity="0.4" />
  <polygon points="448.0,272.0 416.0,288.0 416.0,285.0 448.0,269.0" fill="#020202" opacity="0.85" />
  <polygon points="416.0,288.0 384.0,272.0 384.0,269.0 416.0,285.0" fill="#030303" opacity="0.85" />
  <polygon points="416.0,253.0 448.0,269.0 416.0,285.0 384.0,269.0" fill="#050505" opacity="0.9" />
  <polygon points="416.0,253.0 448.0,269.0 416.0,285.0 384.0,269.0" fill="none" stroke="#0c0c0c" stroke-width="0.5" opacity="0.4" />
  <polygon points="512.0,272.0 480.0,288.0 480.0,193.0 512.0,177.0" fill="#330066" opacity="0.85" />
  <polygon points="480.0,288.0 448.0,272.0 448.0,177.0 480.0,193.0" fill="#4d0099" opacity="0.85" />
  <polygon points="480.0,161.0 512.0,177.0 480.0,193.0 448.0,177.0" fill="#8000ff" opacity="0.9" />
  <polyline points="512.0,177.0 480.0,193.0 448.0,177.0" fill="none" stroke="#b366ff" stroke-width="1.2" opacity="0.9" />
  <line x1="480.0" y1="193.0" x2="480.0" y2="288.0" stroke="#b366ff" stroke-width="1.8" opacity="0.95" />
  <polygon points="576.0,272.0 544.0,288.0 544.0,285.0 576.0,269.0" fill="#020202" opacity="0.85" />
  <polygon points="544.0,288.0 512.0,272.0 512.0,269.0 544.0,285.0" fill="#030303" opacity="0.85" />
  <polygon points="544.0,253.0 576.0,269.0 544.0,285.0 512.0,269.0" fill="#050505" opacity="0.9" />
  <polygon points="544.0,253.0 576.0,269.0 544.0,285.0 512.0,269.0" fill="none" stroke="#0c0c0c" stroke-width="0.5" opacity="0.4" />
  <polygon points="640.0,272.0 608.0,288.0 608.0,285.0 640.0,269.0" fill="#020202" opacity="0.85" />
  <polygon points="608.0,288.0 576.0,272.0 576.0,269.0 608.0,285.0" fill="#030303" opacity="0.85" />
  <polygon points="608.0,253.0 640.0,269.0 608.0,285.0 576.0,269.0" fill="#050505" opacity="0.9" />
  <polygon points="608.0,253.0 640.0,269.0 608.0,285.0 576.0,269.0" fill="none" stroke="#0c0c0c" stroke-width="0.5" opacity="0.4" />
  <polygon points="416.0,288.0 384.0,304.0 384.0,289.0 416.0,273.0" fill="#00131f" opacity="0.85" />
  <polygon points="384.0,304.0 352.0,288.0 352.0,273.0 384.0,289.0" fill="#001e30" opacity="0.85" />
  <polygon points="384.0,257.0 416.0,273.0 384.0,289.0 352.0,273.0" fill="#002d42" opacity="0.9" />
  <polyline points="416.0,273.0 384.0,289.0 352.0,273.0" fill="none" stroke="#005f8c" stroke-width="1.2" opacity="0.9" />
  <line x1="384.0" y1="289.0" x2="384.0" y2="304.0" stroke="#005f8c" stroke-width="1.8" opacity="0.95" />
  <polygon points="480.0,288.0 448.0,304.0 448.0,269.0 480.0,253.0" fill="#002b42" opacity="0.85" />
  <polygon points="448.0,304.0 416.0,288.0 416.0,253.0 448.0,269.0" fill="#003d5c" opacity="0.85" />
  <polygon points="448.0,237.0 480.0,253.0 448.0,269.0 416.0,253.0" fill="#005580" opacity="0.9" />
  <polyline points="480.0,253.0 448.0,269.0 416.0,253.0" fill="none" stroke="#00a2f3" stroke-width="1.2" opacity="0.9" />
  <line x1="448.0" y1="269.0" x2="448.0" y2="304.0" stroke="#00a2f3" stroke-width="1.8" opacity="0.95" />
  <polygon points="544.0,288.0 512.0,304.0 512.0,301.0 544.0,285.0" fill="#020202" opacity="0.85" />
  <polygon points="512.0,304.0 480.0,288.0 480.0,285.0 512.0,301.0" fill="#030303" opacity="0.85" />
  <polygon points="512.0,269.0 544.0,285.0 512.0,301.0 480.0,285.0" fill="#050505" opacity="0.9" />
  <polygon points="512.0,269.0 544.0,285.0 512.0,301.0 480.0,285.0" fill="none" stroke="#0c0c0c" stroke-width="0.5" opacity="0.4" />
  <polygon points="608.0,288.0 576.0,304.0 576.0,301.0 608.0,285.0" fill="#020202" opacity="0.85" />
  <polygon points="576.0,304.0 544.0,288.0 544.0,285.0 576.0,301.0" fill="#030303" opacity="0.85" />
  <polygon points="576.0,269.0 608.0,285.0 576.0,301.0 544.0,285.0" fill="#050505" opacity="0.9" />
  <polygon points="576.0,269.0 608.0,285.0 576.0,301.0 544.0,285.0" fill="none" stroke="#0c0c0c" stroke-width="0.5" opacity="0.4" />
  <polygon points="448.0,304.0 416.0,320.0 416.0,317.0 448.0,301.0" fill="#020202" opacity="0.85" />
  <polygon points="416.0,320.0 384.0,304.0 384.0,301.0 416.0,317.0" fill="#030303" opacity="0.85" />
  <polygon points="416.0,285.0 448.0,301.0 416.0,317.0 384.0,301.0" fill="#050505" opacity="0.9" />
  <polygon points="416.0,285.0 448.0,301.0 416.0,317.0 384.0,301.0" fill="none" stroke="#0c0c0c" stroke-width="0.5" opacity="0.4" />
  <polygon points="512.0,304.0 480.0,320.0 480.0,317.0 512.0,301.0" fill="#020202" opacity="0.85" />
  <polygon points="480.0,320.0 448.0,304.0 448.0,301.0 480.0,317.0" fill="#030303" opacity="0.85" />
  <polygon points="480.0,285.0 512.0,301.0 480.0,317.0 448.0,301.0" fill="#050505" opacity="0.9" />
  <polygon points="480.0,285.0 512.0,301.0 480.0,317.0 448.0,301.0" fill="none" stroke="#0c0c0c" stroke-width="0.5" opacity="0.4" />
  <polygon points="576.0,304.0 544.0,320.0 544.0,317.0 576.0,301.0" fill="#020202" opacity="0.85" />
  <polygon points="544.0,320.0 512.0,304.0 512.0,301.0 544.0,317.0" fill="#030303" opacity="0.85" />
  <polygon points="544.0,285.0 576.0,301.0 544.0,317.0 512.0,301.0" fill="#050505" opacity="0.9" />
  <polygon points="544.0,285.0 576.0,301.0 544.0,317.0 512.0,301.0" fill="none" stroke="#0c0c0c" stroke-width="0.5" opacity="0.4" />
  <polygon points="480.0,320.0 448.0,336.0 448.0,333.0 480.0,317.0" fill="#020202" opacity="0.85" />
  <polygon points="448.0,336.0 416.0,320.0 416.0,317.0 448.0,333.0" fill="#030303" opacity="0.85" />
  <polygon points="448.0,301.0 480.0,317.0 448.0,333.0 416.0,317.0" fill="#050505" opacity="0.9" />
  <polygon points="448.0,301.0 480.0,317.0 448.0,333.0 416.0,317.0" fill="none" stroke="#0c0c0c" stroke-width="0.5" opacity="0.4" />
  <polygon points="544.0,320.0 512.0,336.0 512.0,333.0 544.0,317.0" fill="#020202" opacity="0.85" />
  <polygon points="512.0,336.0 480.0,320.0 480.0,317.0 512.0,333.0" fill="#030303" opacity="0.85" />
  <polygon points="512.0,301.0 544.0,317.0 512.0,333.0 480.0,317.0" fill="#050505" opacity="0.9" />
  <polygon points="512.0,301.0 544.0,317.0 512.0,333.0 480.0,317.0" fill="none" stroke="#0c0c0c" stroke-width="0.5" opacity="0.4" />
  <polygon points="512.0,336.0 480.0,352.0 480.0,349.0 512.0,333.0" fill="#020202" opacity="0.85" />
  <polygon points="480.0,352.0 448.0,336.0 448.0,333.0 480.0,349.0" fill="#030303" opacity="0.85" />
  <polygon points="480.0,317.0 512.0,333.0 480.0,349.0 448.0,333.0" fill="#050505" opacity="0.9" />
  <polygon points="480.0,317.0 512.0,333.0 480.0,349.0 448.0,333.0" fill="none" stroke="#0c0c0c" stroke-width="0.5" opacity="0.4" />
</svg>