<svg xmlns="http://www.w3.org/2000/svg" viewBox="0 0 800 380" width="100%">
  <!-- Deep Dark Space Background -->
  <rect width="100%" height="100%" fill="#000000" />
  
  <!-- Grid Scanlines -->
  <defs>
    <pattern id="lines" width="100" height="4" patternUnits="userSpaceOnUse">
      <line x1="0" y1="0" x2="100" y2="0" stroke="#060606" stroke-width="1.5" />
    </pattern>
  </defs>
  <rect width="100%" height="100%" fill="url(#lines)" />
  
  <polygon points="352.0,184.0 320.0,200.0 320.0,165.0 352.0,149.0" fill="#002b42" opacity="0.85" />
  <polygon points="320.0,200.0 288.0,184.0 288.0,149.0 320.0,165.0" fill="#003d5c" opacity="0.85" />
  <polygon points="320.0,133.0 352.0,149.0 320.0,165.0 288.0,149.0" fill="#005580" opacity="0.9" />
  <polyline points="352.0,149.0 320.0,165.0 288.0,149.0" fill="none" stroke="#00a2f3" stroke-width="1.2" opacity="0.9" />
  <line x1="320.0" y1="165.0" x2="320.0" y2="200.0" stroke="#00a2f3" stroke-width="1.8" opacity="0.95" />
  <polygon points="320.0,200.0 288.0,216.0 288.0,213.0 320.0,197.0" fill="#020202" opacity="0.85" />
  <polygon points="288.0,216.0 256.0,200.0 256.0,197.0 288.0,213.0" fill="#030303" opacity="0.85" />
  <polygon points="288.0,181.0 320.0,197.0 288.0,213.0 256.0,197.0" fill="#050505" opacity="0.9" />
  <polygon points="288.0,181.0 320.0,197.0 288.0,213.0 256.0,197.0" fill="none" stroke="#0c0c0c" stroke-width="0.5" opacity="0.4" />
  <polygon points="384.0,200.0 352.0,216.0 352.0,213.0 384.0,197.0" fill="#020202" opacity="0.85" />
  <polygon points="352.0,216.0 320.0,200.0 320.0,197.0 352.0,213.0" fill="#030303" opacity="0.85" />
  <polygon points="352.0,181.0 384.0,197.0 352.0,213.0 320.0,197.0" fill="#050505" opacity="0.9" />
  <polygon points="352.0,181.0 384.0,197.0 352.0,213.0 320.0,197.0" fill="none" stroke="#0c0c0c" stroke-width="0.5" opacity="0.4" />
  <polygon points="288.0,216.0 256.0,232.0 256.0,217.0 288.0,201.0" fill="#00131f" opacity="0.85" />
  <polygon points="256.0,232.0 224.0,216.0 224.0,201.0 256.0,217.0" fill="#001e30" opacity="0.85" />
  <polygon points="256.0,185.0 288.0,201.0 256.0,217.0 224.0,201.0" fill="#002d42" opacity="0.9" />
  <polyline points="288.0,201.0 256.0,217.0 224.0,201.0" fill="none" stroke="#005f8c" stroke-width="1.2" opacity="0.9" />
  <line x1="256.0" y1="217.0" x2="256.0" y2="232.0" stroke="#005f8c" stroke-width="1.8" opacity="0.95" />
  <polygon points="352.0,216.0 320.0,232.0 320.0,217.0 352.0,201.0" fill="#00131f" opacity="0.85" />
  <polygon points="320.0,232.0 288.0,216.0 288.0,201.0 320.0,217.0" fill="#001e30" opacity="0.85" />
  <polygon points="320.0,185.0 352.0,201.0 320.0,217.0 288.0,201.0" fill="#002d42" opacity="0.9" />
  <polyline points="352.0,201.0 320.0,217.0 288.0,201.0" fill="none" stroke="#005f8c" stroke-width="1.2" opacity="0.9" />
  <line x1="320.0" y1="217.0" x2="320.0" y2="232.0" stroke="#005f8c" stroke-width="1.8" opacity="0.95" />
  <polygon points="416.0,216.0 384.0,232.0 384.0,229.0 416.0,213.0" fill="#020202" opacity="0.85" />
  <polygon points="384.0,232.0 352.0,216.0 352.0,213.0 384.0,229.0" fill="#030303" opacity="0.85" />
  <polygon points="384.0,197.0 416.0,213.0 384.0,229.0 352.0,213.0" fill="#050505" opacity="0.9" />
  <polygon points="384.0,197.0 416.0,213.0 384.0,229.0 352.0,213.0" fill="none" stroke="#0c0c0c" stroke-width="0.5" opacity="0.4" />
  <polygon points="256.0,232.0 224.0,248.0 224.0,245.0 256.0,229.0" fill="#020202" opacity="0.85" />
  <polygon points="224.0,248.0 192.0,232.0 192.0,229.0 224.0,245.0" fill="#030303" opacity="0.85" />
  <polygon points="224.0,213.0 256.0,229.0 224.0,245.0 192.0,229.0" fill="#050505" opacity="0.9" />
  <polygon points="224.0,213.0 256.0,229.0 224.0,245.0 192.0,229.0" fill="none" stroke="#0c0c0c" stroke-width="0.5" opacity="0.4" />
  <polygon points="320.0,232.0 288.0,248.0 288.0,245.0 320.0,229.0" fill="#020202" opacity="0.85" />
  <polygon points="288.0,248.0 256.0,232.0 256.0,229.0 288.0,245.0" fill="#030303" opacity="0.85" />
  <polygon points="288.0,213.0 320.0,229.0 288.0,245.0 256.0,229.0" fill="#050505" opacity="0.9" />
  <polygon points="288.0,213.0 320.0,229.0 288.0,245.0 256.0,229.0" fill="none" stroke="#0c0c0c" stroke-width="0.5" opacity="0.4" />
  <polygon points="384.0,232.0 352.0,248.0 352.0,213.0 384.0,197.0" fill="#002b42" opacity="0.85" />
  <polygon points="352.0,248.0 320.0,232.0 320.0,197.0 352.0,213.0" fill="#003d5c" opacity="0.85" />
  <polygon points="352.0,181.0 384.0,197.0 352.0,213.0 320.0,197.0" fill="#005580" opacity="0.9" />
  <polyline points="384.0,197.0 352.0,213.0 320.0,197.0" fill="none" stroke="#00a2f3" stroke-width="1.2" opacity="0.9" />
  <line x1="352.0" y1="213.0" x2="352.0" y2="248.0" stroke="#00a2f3" stroke-width="1.8" opacity="0.95" />
  <polygon points="448.0,232.0 416.0,248.0 416.0,233.0 448.0,217.0" fill="#00131f" opacity="0.85" />
  <polygon points="416.0,248.0 384.0,232.0 384.0,217.0 416.0,233.0" fill="#001e30" opacity="0.85" />
  <polygon points="416.0,201.0 448.0,217.0 416.0,233.0 384.0,217.0" fill="#002d42" opacity="0.9" />
  <polyline points="448.0,217.0 416.0,233.0 384.0,217.0" fill="none" stroke="#005f8c" stroke-width="1.2" opacity="0.9" />
  <line x1="416.0" y1="233.0" x2="416.0" y2="248.0" stroke="#005f8c" stroke-width="1.8" opacity="0.95" />
  <polygon points="224.0,248.0 192.0,264.0 192.0,261.0 224.0,245.0" fill="#020202" opacity="0.85" />
  <polygon points="192.0,264.0 160.0,248.0 160.0,245.0 192.0,261.0" fill="#030303" opacity="0.85" />
  <polygon points="192.0,229.0 224.0,245.0 192.0,261.0 160.0,245.0" fill="#050505" opacity="0.9" />
  <polygon points="192.0,229.0 224.0,245.0 192.0,261.0 160.0,245.0" fill="none" stroke="#0c0c0c" stroke-width="0.5" opacity="0.4" />
  <polygon points="288.0,248.0 256.0,264.0 256.0,249.0 288.0,233.0" fill="#00131f" opacity="0.85" />
  <polygon points="256.0,264.0 224.0,248.0 224.0,233.0 256.0,249.0" fill="#001e30" opacity="0.85" />
  <polygon points="256.0,217.0 288.0,233.0 256.0,249.0 224.0,233.0" fill="#002d42" opacity="0.9" />
  <polyline points="288.0,233.0 256.0,249.0 224.0,233.0" fill="none" stroke="#005f8c" stroke-width="1.2" opacity="0.9" />
  <line x1="256.0" y1="249.0" x2="256.0" y2="264.0" stroke="#005f8c" stroke-width="1.8" opacity="0.95" />
  <polygon points="352.0,248.0 320.0,264.0 320.0,261.0 352.0,245.0" fill="#020202" opacity="0.85" />
  <polygon points="320.0,264.0 288.0,248.0 288.0,245.0 320.0,261.0" fill="#030303" opacity="0.85" />
  <polygon points="320.0,229.0 352.0,245.0 320.0,261.0 288.0,245.0" fill="#050505" opacity="0.9" />
  <polygon points="320.0,229.0 352.0,245.0 320.0,261.0 288.0,245.0" fill="none" stroke="#0c0c0c" stroke-width="0.5" opacity="0.4" />
  <polygon points="416.0,248.0 384.0,264.0 384.0,261.0 416.0,245.0" fill="#020202" opacity="0.85" />
  <polygon points="384.0,264.0 352.0,248.0 352.0,245.0 384.0,261.0" fill="#030303" opacity="0.85" />
  <polygon points="384.0,229.0 416.0,245.0 384.0,261.0 352.0,245.0" fill="#050505" opacity="0.9" />
  <polygon points="384.0,229.0 416.0,245.0 384.0,261.0 352.0,245.0" fill="none" stroke="#0c0c0c" stroke-width="0.5" opacity="0.4" />
  <polygon points="480.0,248.0 448.0,264.0 448.0,261.0 480.0,245.0" fill="#020202" opacity="0.85" />
  <polygon points="448.0,264.0 416.0,248.0 416.0,245.0 448.0,261.0" fill="#030303" opacity="0.85" />
  <polygon points="448.0,229.0 480.0,245.0 448.0,261.0 416.0,245.0" fill="#050505" opacity="0.9" />
  <polygon points="448.0,229.0 480.0,245.0 448.0,261.0 416.0,245.0" fill="none" stroke="#0c0c0c" stroke-width="0.5" opacity="0.4" />
  <polygon points="192.0,264.0 160.0,280.0 160.0,265.0 192.0,249.0" fill="#00131f" opacity="0.85" />
  <polygon points="160.0,280.0 128.0,264.0 128.0,249.0 160.0,265.0" fill="#001e30" opacity="0.85" />
  <polygon points="160.0,233.0 192.0,249.0 160.0,265.0 128.0,249.0" fill="#002d42" opacity="0.9" />
  <polyline points="192.0,249.0 160.0,265.0 128.0,249.0" fill="none" stroke="#005f8c" stroke-width="1.2" opacity="0.9" />
  <line x1="160.0" y1="265.0" x2="160.0" y2="280.0" stroke="#005f8c" stroke-width="1.8" opacity="0.95" />
  <polygon points="256.0,264.0 224.0,280.0 224.0,277.0 256.0,261.0" fill="#020202" opacity="0.85" />
  <polygon points="224.0,280.0 192.0,264.0 192.0,261.0 224.0,277.0" fill="#030303" opacity="0.85" />
  <polygon points="224.0,245.0 256.0,261.0 224.0,277.0 192.0,261.0" fill="#050505" opacity="0.9" />
  <polygon points="224.0,245.0 256.0,261.0 224.0,277.0 192.0,261.0" fill="none" stroke="#0c0c0c" stroke-width="0.5" opacity="0.4" />
  <polygon points="320.0,264.0 288.0,280.0 288.0,277.0 320.0,261.0" fill="#020202" opacity="0.85" />
  <polygon points="288.0,280.0 256.0,264.0 256.0,261.0 288.0,277.0" fill="#030303" opacity="0.85" />
  <polygon points="288.0,245.0 320.0,261.0 288.0,277.0 256.0,261.0" fill="#050505" opacity="0.9" />
  <polygon points="288.0,245.0 320.0,261.0 288.0,277.0 256.0,261.0" fill="none" stroke="#0c0c0c" stroke-width="0.5" opacity="0.4" />
  <polygon points="384.0,264.0 352.0,280.0 352.0,277.0 384.0,261.0" fill="#020202" opacity="0.85" />
  <polygon points="352.0,280.0 320.0,264.0 320.0,261.0 352.0,277.0" fill="#030303" opacity="0.85" />
  <polygon points="352.0,245.0 384.0,261.0 352.0,277.0 320.0,261.0" fill="#050505" opacity="0.9" />
  <polygon points="352.0,245.0 384.0,261.0 352.0,277.0 320.0,261.0" fill="none" stroke="#0c0c0c" stroke-width="0.5" opacity="0.4" />
  <polygon points="448.0,264.0 416.0,280.0 416.0,277.0 448.0,261.0" fill="#020202" opacity="0.85" />
  <polygon points="416.0,280.0 384.0,264.0 384.0,261.0 416.0,277.0" fill="#030303" opacity="0.85" />
  <polygon points="416.0,245.0 448.0,261.0 416.0,277.0 384.0,261.0" fill="#050505" opacity="0.9" />
  <polygon points="416.0,245.0 448.0,261.0 416.0,277.0 384.0,261.0" fill="none" stroke="#0c0c0c" stroke-width="0.5" opacity="0.4" />
  <polygon points="512.0,264.0 480.0,280.0 480.0,277.0 512.0,261.0" fill="#020202" opacity="0.85" />
  <polygon points="480.0,280.0 448.0,264.0 448.0,261.0 480.0,277.0" fill="#030303" opacity="0.85" />
  <polygon points="480.0,245.0 512.0,261.0 480.0,277.0 448.0,261.0" fill="#050505" opacity="0.9" />
  <polygon points="480.0,245.0 512.0,261.0 480.0,277.0 448.0,261.0" fill="none" stroke="#0c0c0c" stroke-width="0.5" opacity="0.4" />
  <polygon points="160.0,280.0 128.0,296.0 128.0,293.0 160.0,277.0" fill="#020202" opacity="0.85" />
  <polygon points="128.0,296.0 96.0,280.0 96.0,277.0 128.0,293.0" fill="#030303" opacity="0.85" />
  <polygon points="128.0,261.0 160.0,277.0 128.0,293.0 96.0,277.0" fill="#050505" opacity="0.9" />
  <polygon points="128.0,261.0 160.0,277.0 128.0,293.0 96.0,277.0" fill="none" stroke="#0c0c0c" stroke-width="0.5" opacity="0.4" />
  <polygon points="224.0,280.0 192.0,296.0 192.0,281.0 224.0,265.0" fill="#00131f" opacity="0.85" />
  <polygon points="192.0,296.0 160.0,280.0 160.0,265.0 192.0,281.0" fill="#001e30" opacity="0.85" />
  <polygon points="192.0,249.0 224.0,265.0 192.0,281.0 160.0,265.0" fill="#002d42" opacity="0.9" />
  <polyline points="224.0,265.0 192.0,281.0 160.0,265.0" fill="none" stroke="#005f8c" stroke-width="1.2" opacity="0.9" />
  <line x1="192.0" y1="281.0" x2="192.0" y2="296.0" stroke="#005f8c" stroke-width="1.8" opacity="0.95" />
  <polygon points="288.0,280.0 256.0,296.0 256.0,281.0 288.0,265.0" fill="#00131f" opacity="0.85" />
  <polygon points="256.0,296.0 224.0,280.0 224.0,265.0 256.0,281.0" fill="#001e30" opacity="0.85" />
  <polygon points="256.0,249.0 288.0,265.0 256.0,281.0 224.0,265.0" fill="#002d42" opacity="0.9" />
  <polyline points="288.0,265.0 256.0,281.0 224.0,265.0" fill="none" stroke="#005f8c" stroke-width="1.2" opacity="0.9" />
  <line x1="256.0" y1="281.0" x2="256.0" y2="296.0" stroke="#005f8c" stroke-width="1.8" opacity="0.95" />
  <polygon points="352.0,280.0 320.0,296.0 320.0,293.0 352.0,277.0" fill="#020202" opacity="0.85" />
  <polygon points="320.0,296.0 288.0,280.0 288.0,277.0 320.0,293.0" fill="#030303" opacity="0.85" />
  <polygon points="320.0,261.0 352.0,277.0 320.0,293.0 288.0,277.0" fill="#050505" opacity="0.9" />
  <polygon points="320.0,261.0 352.0,277.0 320.0,293.0 288.0,277.0" fill="none" stroke="#0c0c0c" stroke-width="0.5" opacity="0.4" />
  <polygon points="416.0,280.0 384.0,296.0 384.0,293.0 416.0,277.0" fill="#020202" opacity="0.85" />
  <polygon points="384.0,296.0 352.0,280.0 352.0,277.0 384.0,293.0" fill="#030303" opacity="0.85" />
  <polygon points="384.0,261.0 416.0,277.0 384.0,293.0 352.0,277.0" fill="#050505" opacity="0.9" />
  <polygon points="384.0,261.0 416.0,277.0 384.0,293.0 352.0,277.0" fill="none" stroke="#0c0c0c" stroke-width="0.5" opacity="0.4" />
  <polygon points="480.0,280.0 448.0,296.0 448.0,293.0 480.0,277.0" fill="#020202" opacity="0.85" />
  <polygon points="448.0,296.0 416.0,280.0 416.0,277.0 448.0,293.0" fill="#030303" opacity="0.85" />
  <polygon points="448.0,261.0 480.0,277.0 448.0,293.0 416.0,277.0" fill="#050505" opacity="0.9" />
  <polygon points="448.0,261.0 480.0,277.0 448.0,293.0 416.0,277.0" fill="none" stroke="#0c0c0c" stroke-width="0.5" opacity="0.4" />
  <polygon points="544.0,280.0 512.0,296.0 512.0,293.0 544.0,277.0" fill="#020202" opacity="0.85" />
  <polygon points="512.0,296.0 480.0,280.0 480.0,277.0 512.0,293.0" fill="#030303" opacity="0.85" />
  <polygon points="512.0,261.0 544.0,277.0 512.0,293.0 480.0,277.0" fill="#050505" opacity="0.9" />
  <polygon points="512.0,261.0 544.0,277.0 512.0,293.0 480.0,277.0" fill="none" stroke="#0c0c0c" stroke-width="0.5" opacity="0.4" />
  <polygon points="192.0,296.0 160.0,312.0 160.0,309.0 192.0,293.0" fill="#020202" opacity="0.85" />
  <polygon points="160.0,312.0 128.0,296.0 128.0,293.0 160.0,309.0" fill="#030303" opacity="0.85" />
  <polygon points="160.0,277.0 192.0,293.0 160.0,309.0 128.0,293.0" fill="#050505" opacity="0.9" />
  <polygon points="160.0,277.0 192.0,293.0 160.0,309.0 128.0,293.0" fill="none" stroke="#0c0c0c" stroke-width="0.5" opacity="0.4" />
  <polygon points="256.0,296.0 224.0,312.0 224.0,309.0 256.0,293.0" fill="#020202" opacity="0.85" />
  <polygon points="224.0,312.0 192.0,296.0 192.0,293.0 224.0,309.0" fill="#030303" opacity="0.85" />
  <polygon points="224.0,277.0 256.0,293.0 224.0,309.0 192.0,293.0" fill="#050505" opacity="0.9" />
  <polygon points="224.0,277.0 256.0,293.0 224.0,309.0 192.0,293.0" fill="none" stroke="#0c0c0c" stroke-width="0.5" opacity="0.4" />
  <polygon points="320.0,296.0 288.0,312.0 288.0,309.0 320.0,293.0" fill="#020202" opacity="0.85" />
  <polygon points="288.0,312.0 256.0,296.0 256.0,293.0 288.0,309.0" fill="#030303" opacity="0.85" />
  <polygon points="288.0,277.0 320.0,293.0 288.0,309.0 256.0,293.0" fill="#050505" opacity="0.9" />
  <polygon points="288.0,277.0 320.0,293.0 288.0,309.0 256.0,293.0" fill="none" stroke="#0c0c0c" stroke-width="0.5" opacity="0.4" />
  <polygon points="384.0,296.0 352.0,312.0 352.0,277.0 384.0,261.0" fill="#002b42" opacity="0.85" />
  <polygon points="352.0,312.0 320.0,296.0 320.0,261.0 352.0,277.0" fill="#003d5c" opacity="0.85" />
  <polygon points="352.0,245.0 384.0,261.0 352.0,277.0 320.0,261.0" fill="#005580" opacity="0.9" />
  <polyline points="384.0,261.0 352.0,277.0 320.0,261.0" fill="none" stroke="#00a2f3" stroke-width="1.2" opacity="0.9" />
  <line x1="352.0" y1="277.0" x2="352.0" y2="312.0" stroke="#00a2f3" stroke-width="1.8" opacity="0.95" />
  <polygon points="448.0,296.0 416.0,312.0 416.0,309.0 448.0,293.0" fill="#020202" opacity="0.85" />
  <polygon points="416.0,312.0 384.0,296.0 384.0,293.0 416.0,309.0" fill="#030303" opacity="0.85" />
  <polygon points="416.0,277.0 448.0,293.0 416.0,309.0 384.0,293.0" fill="#050505" opacity="0.9" />
  <polygon points="416.0,277.0 448.0,293.0 416.0,309.0 384.0,293.0" fill="none" stroke="#0c0c0c" stroke-width="0.5" opacity="0.4" />
  <polygon points="512.0,296.0 480.0,312.0 480.0,309.0 512.0,293.0" fill="#020202" opacity="0.85" />
  <polygon points="480.0,312.0 448.0,296.0 448.0,293.0 480.0,309.0" fill="#030303" opacity="0.85" />
  <polygon points="480.0,277.0 512.0,293.0 480.0,309.0 448.0,293.0" fill="#050505" opacity="0.9" />
  <polygon points="480.0,277.0 512.0,293.0 480.0,309.0 448.0,293.0" fill="none" stroke="#0c0c0c" stroke-width="0.5" opacity="0.4" />
  <polygon points="576.0,296.0 544.0,312.0 544.0,309.0 576.0,293.0" fill="#020202" opacity="0.85" />
  <polygon points="544.0,312.0 512.0,296.0 512.0,293.0 544.0,309.0" fill="#030303" opacity="0.85" />
  <polygon points="544.0,277.0 576.0,293.0 544.0,309.0 512.0,293.0" fill="#050505" opacity="0.9" />
  <polygon points="544.0,277.0 576.0,293.0 544.0,309.0 512.0,293.0" fill="none" stroke="#0c0c0c" stroke-width="0.5" opacity="0.4" />
  <polygon points="224.0,312.0 192.0,328.0 192.0,325.0 224.0,309.0" fill="#020202" opacity="0.85" />
  <polygon points="192.0,328.0 160.0,312.0 160.0,309.0 192.0,325.0" fill="#030303" opacity="0.85" />
  <polygon points="192.0,293.0 224.0,309.0 192.0,325.0 160.0,309.0" fill="#050505" opacity="0.9" />
  <polygon points="192.0,293.0 224.0,309.0 192.0,325.0 160.0,309.0" fill="none" stroke="#0c0c0c" stroke-width="0.5" opacity="0.4" />
  <polygon points="288.0,312.0 256.0,328.0 256.0,325.0 288.0,309.0" fill="#020202" opacity="0.85" />
  <polygon points="256.0,328.0 224.0,312.0 224.0,309.0 256.0,325.0" fill="#030303" opacity="0.85" />
  <polygon points="256.0,293.0 288.0,309.0 256.0,325.0 224.0,309.0" fill="#050505" opacity="0.9" />
  <polygon points="256.0,293.0 288.0,309.0 256.0,325.0 224.0,309.0" fill="none" stroke="#0c0c0c" stroke-width="0.5" opacity="0.4" />
  <polygon points="352.0,312.0 320.0,328.0 320.0,325.0 352.0,309.0" fill="#020202" opacity="0.85" />
  <polygon points="320.0,328.0 288.0,312.0 288.0,309.0 320.0,325.0" fill="#030303" opacity="0.85" />
  <polygon points="320.0,293.0 352.0,309.0 320.0,325.0 288.0,309.0" fill="#050505" opacity="0.9" />
  <polygon points="320.0,293.0 352.0,309.0 320.0,325.0 288.0,309.0" fill="none" stroke="#0c0c0c" stroke-width="0.5" opacity="0.4" />
  <polygon points="416.0,312.0 384.0,328.0 384.0,325.0 416.0,309.0" fill="#020202" opacity="0.85" />
  <polygon points="384.0,328.0 352.0,312.0 352.0,309.0 384.0,325.0" fill="#030303" opacity="0.85" />
  <polygon points="384.0,293.0 416.0,309.0 384.0,325.0 352.0,309.0" fill="#050505" opacity="0.9" />
  <polygon points="384.0,293.0 416.0,309.0 384.0,325.0 352.0,309.0" fill="none" stroke="#0c0c0c" stroke-width="0.5" opacity="0.4" />
  <polygon points="480.0,312.0 448.0,328.0 448.0,325.0 480.0,309.0" fill="#020202" opacity="0.85" />
  <polygon points="448.0,328.0 416.0,312.0 416.0,309.0 448.0,325.0" fill="#030303" opacity="0.85" />
  <polygon points="448.0,293.0 480.0,309.0 448.0,325.0 416.0,309.0" fill="#050505" opacity="0.9" />
  <polygon points="448.0,293.0 480.0,309.0 448.0,325.0 416.0,309.0" fill="none" stroke="#0c0c0c" stroke-width="0.5" opacity="0.4" />
  <polygon points="544.0,312.0 512.0,328.0 512.0,325.0 544.0,309.0" fill="#020202" opacity="0.85" />
  <polygon points="512.0,328.0 480.0,312.0 480.0,309.0 512.0,325.0" fill="#030303" opacity="0.85" />
  <polygon points="512.0,293.0 544.0,309.0 512.0,325.0 480.0,309.0" fill="#050505" opacity="0.9" />
  <polygon points="512.0,293.0 544.0,309.0 512.0,325.0 480.0,309.0" fill="none" stroke="#0c0c0c" stroke-width="0.5" opacity="0.4" />
  <polygon points="608.0,312.0 576.0,328.0 576.0,325.0 608.0,309.0" fill="#020202" opacity="0.85" />
  <polygon points="576.0,328.0 544.0,312.0 544.0,309.0 576.0,325.0" fill="#030303" opacity="0.85" />
  <polygon points="576.0,293.0 608.0,309.0 576.0,325.0 544.0,309.0" fill="#050505" opacity="0.9" />
  <polygon points="576.0,293.0 608.0,309.0 576.0,325.0 544.0,309.0" fill="none" stroke="#0c0c0c" stroke-width="0.5" opacity="0.4" />
  <polygon points="256.0,328.0 224.0,344.0 224.0,309.0 256.0,293.0" fill="#002b42" opacity="0.85" />
  <polygon points="224.0,344.0 192.0,328.0 192.0,293.0 224.0,309.0" fill="#003d5c" opacity="0.85" />
  <polygon points="224.0,277.0 256.0,293.0 224.0,309.0 192.0,293.0" fill="#005580" opacity="0.9" />
  <polyline points="256.0,293.0 224.0,309.0 192.0,293.0" fill="none" stroke="#00a2f3" stroke-width="1.2" opacity="0.9" />
  <line x1="224.0" y1="309.0" x2="224.0" y2="344.0" stroke="#00a2f3" stroke-width="1.8" opacity="0.95" />
  <polygon points="320.0,328.0 288.0,344.0 288.0,341.0 320.0,325.0" fill="#020202" opacity="0.85" />
  <polygon points="288.0,344.0 256.0,328.0 256.0,325.0 288.0,341.0" fill="#030303" opacity="0.85" />
  <polygon points="288.0,309.0 320.0,325.0 288.0,341.0 256.0,325.0" fill="#050505" opacity="0.9" />
  <polygon points="288.0,309.0 320.0,325.0 288.0,341.0 256.0,325.0" fill="none" stroke="#0c0c0c" stroke-width="0.5" opacity="0.4" />
  <polygon points="384.0,328.0 352.0,344.0 352.0,341.0 384.0,325.0" fill="#020202" opacity="0.85" />
  <polygon points="352.0,344.0 320.0,328.0 320.0,325.0 352.0,341.0" fill="#030303" opacity="0.85" />
  <polygon points="352.0,309.0 384.0,325.0 352.0,341.0 320.0,325.0" fill="#050505" opacity="0.9" />
  <polygon points="352.0,309.0 384.0,325.0 352.0,341.0 320.0,325.0" fill="none" stroke="#0c0c0c" stroke-width="0.5" opacity="0.4" />
  <polygon points="448.0,328.0 416.0,344.0 416.0,309.0 448.0,293.0" fill="#002b42" opacity="0.85" />
  <polygon points="416.0,344.0 384.0,328.0 384.0,293.0 416.0,309.0" fill="#003d5c" opacity="0.85" />
  <polygon points="416.0,277.0 448.0,293.0 416.0,309.0 384.0,293.0" fill="#005580" opacity="0.9" />
  <polyline points="448.0,293.0 416.0,309.0 384.0,293.0" fill="none" stroke="#00a2f3" stroke-width="1.2" opacity="0.9" />
  <line x1="416.0" y1="309.0" x2="416.0" y2="344.0" stroke="#00a2f3" stroke-width="1.8" opacity="0.95" />
  <polygon points="512.0,328.0 480.0,344.0 480.0,341.0 512.0,325.0" fill="#020202" opacity="0.85" />
  <polygon points="480.0,344.0 448.0,328.0 448.0,325.0 480.0,341.0" fill="#030303" opacity="0.85" />
  <polygon points="480.0,309.0 512.0,325.0 480.0,341.0 448.0,325.0" fill="#050505" opacity="0.9" />
  <polygon points="480.0,309.0 512.0,325.0 480.0,341.0 448.0,325.0" fill="none" stroke="#0c0c0c" stroke-width="0.5" opacity="0.4" />
  <polygon points="576.0,328.0 544.0,344.0 544.0,309.0 576.0,293.0" fill="#002b42" opacity="0.85" />
  <polygon points="544.0,344.0 512.0,328.0 512.0,293.0 544.0,309.0" fill="#003d5c" opacity="0.85" />
  <polygon points="544.0,277.0 576.0,293.0 544.0,309.0 512.0,293.0" fill="#005580" opacity="0.9" />
  <polyline points="576.0,293.0 544.0,309.0 512.0,293.0" fill="none" stroke="#00a2f3" stroke-width="1.2" opacity="0.9" />
  <line x1="544.0" y1="309.0" x2="544.0" y2="344.0" stroke="#00a2f3" stroke-width="1.8" opacity="0.95" />
  <polygon points="640.0,328.0 608.0,344.0 608.0,341.0 640.0,325.0" fill="#020202" opacity="0.85" />
  <polygon points="608.0,344.0 576.0,328.0 576.0,325.0 608.0,341.0" fill="#030303" opacity="0.85" />
  <polygon points="608.0,309.0 640.0,325.0 608.0,341.0 576.0,325.0" fill="#050505" opacity="0.9" />
  <polygon points="608.0,309.0 640.0,325.0 608.0,341.0 576.0,325.0" fill="none" stroke="#0c0c0c" stroke-width="0.5" opacity="0.4" />
  <polygon points="288.0,344.0 256.0,360.0 256.0,357.0 288.0,341.0" fill="#020202" opacity="0.85" />
  <polygon points="256.0,360.0 224.0,344.0 224.0,341.0 256.0,357.0" fill="#030303" opacity="0.85" />
  <polygon points="256.0,325.0 288.0,341.0 256.0,357.0 224.0,341.0" fill="#050505" opacity="0.9" />
  <polygon points="256.0,325.0 288.0,341.0 256.0,357.0 224.0,341.0" fill="none" stroke="#0c0c0c" stroke-width="0.5" opacity="0.4" />
  <polygon points="352.0,344.0 320.0,360.0 320.0,357.0 352.0,341.0" fill="#020202" opacity="0.85" />
  <polygon points="320.0,360.0 288.0,344.0 288.0,341.0 320.0,357.0" fill="#030303" opacity="0.85" />
  <polygon points="320.0,325.0 352.0,341.0 320.0,357.0 288.0,341.0" fill="#050505" opacity="0.9" />
  <polygon points="320.0,325.0 352.0,341.0 320.0,357.0 288.0,341.0" fill="none" stroke="#0c0c0c" stroke-width="0.5" opacity="0.4" />
  <polygon points="416.0,344.0 384.0,360.0 384.0,357.0 416.0,341.0" fill="#020202" opacity="0.85" />
  <polygon points="384.0,360.0 352.0,344.0 352.0,341.0 384.0,357.0" fill="#030303" opacity="0.85" />
  <polygon points="384.0,325.0 416.0,341.0 384.0,357.0 352.0,341.0" fill="#050505" opacity="0.9" />
  <polygon points="384.0,325.0 416.0,341.0 384.0,357.0 352.0,341.0" fill="none" stroke="#0c0c0c" stroke-width="0.5" opacity="0.4" />
  <polygon points="480.0,344.0 448.0,360.0 448.0,345.0 480.0,329.0" fill="#00131f" opacity="0.85" />
  <polygon points="448.0,360.0 416.0,344.0 416.0,329.0 448.0,345.0" fill="#001e30" opacity="0.85" />
  <polygon points="448.0,313.0 480.0,329.0 448.0,345.0 416.0,329.0" fill="#002d42" opacity="0.9" />
  <polyline points="480.0,329.0 448.0,345.0 416.0,329.0" fill="none" stroke="#005f8c" stroke-width="1.2" opacity="0.9" />
  <line x1="448.0" y1="345.0" x2="448.0" y2="360.0" stroke="#005f8c" stroke-width="1.8" opacity="0.95" />
  <polygon points="544.0,344.0 512.0,360.0 512.0,357.0 544.0,341.0" fill="#020202" opacity="0.85" />
  <polygon points="512.0,360.0 480.0,344.0 480.0,341.0 512.0,357.0" fill="#030303" opacity="0.85" />
  <polygon points="512.0,325.0 544.0,341.0 512.0,357.0 480.0,341.0" fill="#050505" opacity="0.9" />
  <polygon points="512.0,325.0 544.0,341.0 512.0,357.0 480.0,341.0" fill="none" stroke="#0c0c0c" stroke-width="0.5" opacity="0.4" />
  <polygon points="608.0,344.0 576.0,360.0 576.0,325.0 608.0,309.0" fill="#002b42" opacity="0.85" />
  <polygon points="576.0,360.0 544.0,344.0 544.0,309.0 576.0,325.0" fill="#003d5c" opacity="0.85" />
  <polygon points="576.0,293.0 608.0,309.0 576.0,325.0 544.0,309.0" fill="#005580" opacity="0.9" />
  <polyline points="608.0,309.0 576.0,325.0 544.0,309.0" fill="none" stroke="#00a2f3" stroke-width="1.2" opacity="0.9" />
  <line x1="576.0" y1="325.0" x2="576.0" y2="360.0" stroke="#00a2f3" stroke-width="1.8" opacity="0.95" />
  <polygon points="672.0,344.0 640.0,360.0 640.0,295.0 672.0,279.0" fill="#005f9e" opacity="0.85" />
  <polygon points="640.0,360.0 608.0,344.0 608.0,279.0 640.0,295.0" fill="#0077c2" opacity="0.85" />
  <polygon points="640.0,263.0 672.0,279.0 640.0,295.0 608.0,279.0" fill="#00d4ff" opacity="0.9" />
  <polyline points="672.0,279.0 640.0,295.0 608.0,279.0" fill="none" stroke="#5cf0ff" stroke-width="1.2" opacity="0.9" />
  <line x1="640.0" y1="295.0" x2="640.0" y2="360.0" stroke="#5cf0ff" stroke-width="1.8" opacity="0.95" />
  <polygon points="320.0,360.0 288.0,376.0 288.0,373.0 320.0,357.0" fill="#020202" opacity="0.85" />
  <polygon points="288.0,376.0 256.0,360.0 256.0,357.0 288.0,373.0" fill="#030303" opacity="0.85" />
  <polygon points="288.0,341.0 320.0,357.0 288.0,373.0 256.0,357.0" fill="#050505" opacity="0.9" />
  <polygon points="288.0,341.0 320.0,357.0 288.0,373.0 256.0,357.0" fill="none" stroke="#0c0c0c" stroke-width="0.5" opacity="0.4" />
  <polygon points="384.0,360.0 352.0,376.0 352.0,373.0 384.0,357.0" fill="#020202" opacity="0.85" />
  <polygon points="352.0,376.0 320.0,360.0 320.0,357.0 352.0,373.0" fill="#030303" opacity="0.85" />
  <polygon points="352.0,341.0 384.0,357.0 352.0,373.0 320.0,357.0" fill="#050505" opacity="0.9" />
  <polygon points="352.0,341.0 384.0,357.0 352.0,373.0 320.0,357.0" fill="none" stroke="#0c0c0c" stroke-width="0.5" opacity="0.4" />
  <polygon points="448.0,360.0 416.0,376.0 416.0,373.0 448.0,357.0" fill="#020202" opacity="0.85" />
  <polygon points="416.0,376.0 384.0,360.0 384.0,357.0 416.0,373.0" fill="#030303" opacity="0.85" />
  <polygon points="416.0,341.0 448.0,357.0 416.0,373.0 384.0,357.0" fill="#050505" opacity="0.9" />
  <polygon points="416.0,341.0 448.0,357.0 416.0,373.0 384.0,357.0" fill="none" stroke="#0c0c0c" stroke-width="0.5" opacity="0.4" />
  <polygon points="512.0,360.0 480.0,376.0 480.0,373.0 512.0,357.0" fill="#020202" opacity="0.85" />
  <polygon points="480.0,376.0 448.0,360.0 448.0,357.0 480.0,373.0" fill="#030303" opacity="0.85" />
  <polygon points="480.0,341.0 512.0,357.0 480.0,373.0 448.0,357.0" fill="#050505" opacity="0.9" />
  <polygon points="480.0,341.0 512.0,357.0 480.0,373.0 448.0,357.0" fill="none" stroke="#0c0c0c" stroke-width="0.5" opacity="0.4" />
  <polygon points="576.0,360.0 544.0,376.0 544.0,373.0 576.0,357.0" fill="#020202" opacity="0.85" />
  <polygon points="544.0,376.0 512.0,360.0 512.0,357.0 544.0,373.0" fill="#030303" opacity="0.85" />
  <polygon points="544.0,341.0 576.0,357.0 544.0,373.0 512.0,357.0" fill="#050505" opacity="0.9" />
  <polygon points="544.0,341.0 576.0,357.0 544.0,373.0 512.0,357.0" fill="none" stroke="#0c0c0c" stroke-width="0.5" opacity="0.4" />
  <polygon points="640.0,360.0 608.0,376.0 608.0,373.0 640.0,357.0" fill="#020202" opacity="0.85" />
  <polygon points="608.0,376.0 576.0,360.0 576.0,357.0 608.0,373.0" fill="#030303" opacity="0.85" />
  <polygon points="608.0,341.0 640.0,357.0 608.0,373.0 576.0,357.0" fill="#050505" opacity="0.9" />
  <polygon points="608.0,341.0 640.0,357.0 608.0,373.0 576.0,357.0" fill="none" stroke="#0c0c0c" stroke-width="0.5" opacity="0.4" />
  <polygon points="704.0,360.0 672.0,376.0 672.0,373.0 704.0,357.0" fill="#020202" opacity="0.85" />
  <polygon points="672.0,376.0 640.0,360.0 640.0,357.0 672.0,373.0" fill="#030303" opacity="0.85" />
  <polygon points="672.0,341.0 704.0,357.0 672.0,373.0 640.0,357.0" fill="#050505" opacity="0.9" />
  <polygon points="672.0,341.0 704.0,357.0 672.0,373.0 640.0,357.0" fill="none" stroke="#0c0c0c" stroke-width="0.5" opacity="0.4" />
  <polygon points="352.0,376.0 320.0,392.0 320.0,389.0 352.0,373.0" fill="#020202" opacity="0.85" />
  <polygon points="320.0,392.0 288.0,376.0 288.0,373.0 320.0,389.0" fill="#030303" opacity="0.85" />
  <polygon points="320.0,357.0 352.0,373.0 320.0,389.0 288.0,373.0" fill="#050505" opacity="0.9" />
  <polygon points="320.0,357.0 352.0,373.0 320.0,389.0 288.0,373.0" fill="none" stroke="#0c0c0c" stroke-width="0.5" opacity="0.4" />
  <polygon points="416.0,376.0 384.0,392.0 384.0,377.0 416.0,361.0" fill="#00131f" opacity="0.85" />
  <polygon points="384.0,392.0 352.0,376.0 352.0,361.0 384.0,377.0" fill="#001e30" opacity="0.85" />
  <polygon points="384.0,345.0 416.0,361.0 384.0,377.0 352.0,361.0" fill="#002d42" opacity="0.9" />
  <polyline points="416.0,361.0 384.0,377.0 352.0,361.0" fill="none" stroke="#005f8c" stroke-width="1.2" opacity="0.9" />
  <line x1="384.0" y1="377.0" x2="384.0" y2="392.0" stroke="#005f8c" stroke-width="1.8" opacity="0.95" />
  <polygon points="480.0,376.0 448.0,392.0 448.0,389.0 480.0,373.0" fill="#020202" opacity="0.85" />
  <polygon points="448.0,392.0 416.0,376.0 416.0,373.0 448.0,389.0" fill="#030303" opacity="0.85" />
  <polygon points="448.0,357.0 480.0,373.0 448.0,389.0 416.0,373.0" fill="#050505" opacity="0.9" />
  <polygon points="448.0,357.0 480.0,373.0 448.0,389.0 416.0,373.0" fill="none" stroke="#0c0c0c" stroke-width="0.5" opacity="0.4" />
  <polygon points="544.0,376.0 512.0,392.0 512.0,389.0 544.0,373.0" fill="#020202" opacity="0.85" />
  <polygon points="512.0,392.0 480.0,376.0 480.0,373.0 512.0,389.0" fill="#030303" opacity="0.85" />
  <polygon points="512.0,357.0 544.0,373.0 512.0,389.0 480.0,373.0" fill="#050505" opacity="0.9" />
  <polygon points="512.0,357.0 544.0,373.0 512.0,389.0 480.0,373.0" fill="none" stroke="#0c0c0c" stroke-width="0.5" opacity="0.4" />
  <polygon points="608.0,376.0 576.0,392.0 576.0,389.0 608.0,373.0" fill="#020202" opacity="0.85" />
  <polygon points="576.0,392.0 544.0,376.0 544.0,373.0 576.0,389.0" fill="#030303" opacity="0.85" />
  <polygon points="576.0,357.0 608.0,373.0 576.0,389.0 544.0,373.0" fill="#050505" opacity="0.9" />
  <polygon points="576.0,357.0 608.0,373.0 576.0,389.0 544.0,373.0" fill="none" stroke="#0c0c0c" stroke-width="0.5" opacity="0.4" />
  <polygon points="672.0,376.0 640.0,392.0 640.0,389.0 672.0,373.0" fill="#020202" opacity="0.85" />
  <polygon points="640.0,392.0 608.0,376.0 608.0,373.0 640.0,389.0" fill="#030303" opacity="0.85" />
  <polygon points="640.0,357.0 672.0,373.0 640.0,389.0 608.0,373.0" fill="#050505" opacity="0.9" />
  <polygon points="640.0,357.0 672.0,373.0 640.0,389.0 608.0,373.0" fill="none" stroke="#0c0c0c" stroke-width="0.5" opacity="0.4" />
  <polygon points="384.0,392.0 352.0,408.0 352.0,405.0 384.0,389.0" fill="#020202" opacity="0.85" />
  <polygon points="352.0,408.0 320.0,392.0 320.0,389.0 352.0,405.0" fill="#030303" opacity="0.85" />
  <polygon points="352.0,373.0 384.0,389.0 352.0,405.0 320.0,389.0" fill="#050505" opacity="0.9" />
  <polygon points="352.0,373.0 384.0,389.0 352.0,405.0 320.0,389.0" fill="none" stroke="#0c0c0c" stroke-width="0.5" opacity="0.4" />
  <polygon points="448.0,392.0 416.0,408.0 416.0,405.0 448.0,389.0" fill="#020202" opacity="0.85" />
  <polygon points="416.0,408.0 384.0,392.0 384.0,389.0 416.0,405.0" fill="#030303" opacity="0.85" />
  <polygon points="416.0,373.0 448.0,389.0 416.0,405.0 384.0,389.0" fill="#050505" opacity="0.9" />
  <polygon points="416.0,373.0 448.0,389.0 416.0,405.0 384.0,389.0" fill="none" stroke="#0c0c0c" stroke-width="0.5" opacity="0.4" />
  <polygon points="512.0,392.0 480.0,408.0 480.0,313.0 512.0,297.0" fill="#330066" opacity="0.85" />
  <polygon points="480.0,408.0 448.0,392.0 448.0,297.0 480.0,313.0" fill="#4d0099" opacity="0.85" />
  <polygon points="480.0,281.0 512.0,297.0 480.0,313.0 448.0,297.0" fill="#8000ff" opacity="0.9" />
  <polyline points="512.0,297.0 480.0,313.0 448.0,297.0" fill="none" stroke="#b366ff" stroke-width="1.2" opacity="0.9" />
  <line x1="480.0" y1="313.0" x2="480.0" y2="408.0" stroke="#b366ff" stroke-width="1.8" opacity="0.95" />
  <polygon points="576.0,392.0 544.0,408.0 544.0,405.0 576.0,389.0" fill="#020202" opacity="0.85" />
  <polygon points="544.0,408.0 512.0,392.0 512.0,389.0 544.0,405.0" fill="#030303" opacity="0.85" />
  <polygon points="544.0,373.0 576.0,389.0 544.0,405.0 512.0,389.0" fill="#050505" opacity="0.9" />
  <polygon points="544.0,373.0 576.0,389.0 544.0,405.0 512.0,389.0" fill="none" stroke="#0c0c0c" stroke-width="0.5" opacity="0.4" />
  <polygon points="640.0,392.0 608.0,408.0 608.0,405.0 640.0,389.0" fill="#020202" opacity="0.85" />
  <polygon points="608.0,408.0 576.0,392.0 576.0,389.0 608.0,405.0" fill="#030303" opacity="0.85" />
  <polygon points="608.0,373.0 640.0,389.0 608.0,405.0 576.0,389.0" fill="#050505" opacity="0.9" />
  <polygon points="608.0,373.0 640.0,389.0 608.0,405.0 576.0,389.0" fill="none" stroke="#0c0c0c" stroke-width="0.5" opacity="0.4" />
  <polygon points="416.0,408.0 384.0,424.0 384.0,409.0 416.0,393.0" fill="#00131f" opacity="0.85" />
  <polygon points="384.0,424.0 352.0,408.0 352.0,393.0 384.0,409.0" fill="#001e30" opacity="0.85" />
  <polygon points="384.0,377.0 416.0,393.0 384.0,409.0 352.0,393.0" fill="#002d42" opacity="0.9" />
  <polyline points="416.0,393.0 384.0,409.0 352.0,393.0" fill="none" stroke="#005f8c" stroke-width="1.2" opacity="0.9" />
  <line x1="384.0" y1="409.0" x2="384.0" y2="424.0" stroke="#005f8c" stroke-width="1.8" opacity="0.95" />
  <polygon points="480.0,408.0 448.0,424.0 448.0,389.0 480.0,373.0" fill="#002b42" opacity="0.85" />
  <polygon points="448.0,424.0 416.0,408.0 416.0,373.0 448.0,389.0" fill="#003d5c" opacity="0.85" />
  <polygon points="448.0,357.0 480.0,373.0 448.0,389.0 416.0,373.0" fill="#005580" opacity="0.9" />
  <polyline points="480.0,373.0 448.0,389.0 416.0,373.0" fill="none" stroke="#00a2f3" stroke-width="1.2" opacity="0.9" />
  <line x1="448.0" y1="389.0" x2="448.0" y2="424.0" stroke="#00a2f3" stroke-width="1.8" opacity="0.95" />
  <polygon points="544.0,408.0 512.0,424.0 512.0,421.0 544.0,405.0" fill="#020202" opacity="0.85" />
  <polygon points="512.0,424.0 480.0,408.0 480.0,405.0 512.0,421.0" fill="#030303" opacity="0.85" />
  <polygon points="512.0,389.0 544.0,405.0 512.0,421.0 480.0,405.0" fill="#050505" opacity="0.9" />
  <polygon points="512.0,389.0 544.0,405.0 512.0,421.0 480.0,405.0" fill="none" stroke="#0c0c0c" stroke-width="0.5" opacity="0.4" />
  <polygon points="608.0,408.0 576.0,424.0 576.0,421.0 608.0,405.0" fill="#020202" opacity="0.85" />
  <polygon points="576.0,424.0 544.0,408.0 544.0,405.0 576.0,421.0" fill="#030303" opacity="0.85" />
  <polygon points="576.0,389.0 608.0,405.0 576.0,421.0 544.0,405.0" fill="#050505" opacity="0.9" />
  <polygon points="576.0,389.0 608.0,405.0 576.0,421.0 544.0,405.0" fill="none" stroke="#0c0c0c" stroke-width="0.5" opacity="0.4" />
  <polygon points="448.0,424.0 416.0,440.0 416.0,437.0 448.0,421.0" fill="#020202" opacity="0.85" />
  <polygon points="416.0,440.0 384.0,424.0 384.0,421.0 416.0,437.0" fill="#030303" opacity="0.85" />
  <polygon points="416.0,405.0 448.0,421.0 416.0,437.0 384.0,421.0" fill="#050505" opacity="0.9" />
  <polygon points="416.0,405.0 448.0,421.0 416.0,437.0 384.0,421.0" fill="none" stroke="#0c0c0c" stroke-width="0.5" opacity="0.4" />
  <polygon points="512.0,424.0 480.0,440.0 480.0,437.0 512.0,421.0" fill="#020202" opacity="0.85" />
  <polygon points="480.0,440.0 448.0,424.0 448.0,421.0 480.0,437.0" fill="#030303" opacity="0.85" />
  <polygon points="480.0,405.0 512.0,421.0 480.0,437.0 448.0,421.0" fill="#050505" opacity="0.9" />
  <polygon points="480.0,405.0 512.0,421.0 480.0,437.0 448.0,421.0" fill="none" stroke="#0c0c0c" stroke-width="0.5" opacity="0.4" />
  <polygon points="576.0,424.0 544.0,440.0 544.0,437.0 576.0,421.0" fill="#020202" opacity="0.85" />
  <polygon points="544.0,440.0 512.0,424.0 512.0,421.0 544.0,437.0" fill="#030303" opacity="0.85" />
  <polygon points="544.0,405.0 576.0,421.0 544.0,437.0 512.0,421.0" fill="#050505" opacity="0.9" />
  <polygon points="544.0,405.0 576.0,421.0 544.0,437.0 512.0,421.0" fill="none" stroke="#0c0c0c" stroke-width="0.5" opacity="0.4" />
  <polygon points="480.0,440.0 448.0,456.0 448.0,453.0 480.0,437.0" fill="#020202" opacity="0.85" />
  <polygon points="448.0,456.0 416.0,440.0 416.0,437.0 448.0,453.0" fill="#030303" opacity="0.85" />
  <polygon points="448.0,421.0 480.0,437.0 448.0,453.0 416.0,437.0" fill="#050505" opacity="0.9" />
  <polygon points="448.0,421.0 480.0,437.0 448.0,453.0 416.0,437.0" fill="none" stroke="#0c0c0c" stroke-width="0.5" opacity="0.4" />
  <polygon points="544.0,440.0 512.0,456.0 512.0,453.0 544.0,437.0" fill="#020202" opacity="0.85" />
  <polygon points="512.0,456.0 480.0,440.0 480.0,437.0 512.0,453.0" fill="#030303" opacity="0.85" />
  <polygon points="512.0,421.0 544.0,437.0 512.0,453.0 480.0,437.0" fill="#050505" opacity="0.9" />
  <polygon points="512.0,421.0 544.0,437.0 512.0,453.0 480.0,437.0" fill="none" stroke="#0c0c0c" stroke-width="0.5" opacity="0.4" />
  <polygon points="512.0,456.0 480.0,472.0 480.0,469.0 512.0,453.0" fill="#020202" opacity="0.85" />
  <polygon points="480.0,472.0 448.0,456.0 448.0,453.0 480.0,469.0" fill="#030303" opacity="0.85" />
  <polygon points="480.0,437.0 512.0,453.0 480.0,469.0 448.0,453.0" fill="#050505" opacity="0.9" />
  <polygon points="480.0,437.0 512.0,453.0 480.0,469.0 448.0,453.0" fill="none" stroke="#0c0c0c" stroke-width="0.5" opacity="0.4" />
</svg>