<svg xmlns="http://www.w3.org/2000/svg" viewBox="0 0 1000 116" width="100%" role="img" aria-label="Commit activity by hour of day (UTC+3), from the last 534 commits">
  
    <defs>
        <linearGradient id="skyFade" x1="0" y1="0" x2="0" y2="1">
            <stop offset="0%" stop-color="#020713" />
            <stop offset="55%" stop-color="#01030a" />
            <stop offset="100%" stop-color="#020713" />
        </linearGradient>
        <radialGradient id="horizonGlow" cx="50%" cy="50%" r="50%">
            <stop offset="0%" stop-color="#0a4a86" stop-opacity="0.55" />
            <stop offset="60%" stop-color="#062a52" stop-opacity="0.18" />
            <stop offset="100%" stop-color="#01030a" stop-opacity="0" />
        </radialGradient>
        <filter id="bloom" x="-30%" y="-30%" width="160%" height="160%">
            <feGaussianBlur stdDeviation="4" result="b" />
            <feMerge><feMergeNode in="b" /><feMergeNode in="SourceGraphic" /></feMerge>
        </filter>
        <style>
            .t-title { font-family: "Segoe UI", "Helvetica Neue", Arial, sans-serif; font-weight: 300; letter-spacing: 6px; fill: #cfeeff; }
            .t-sub   { font-family: "Segoe UI", "Helvetica Neue", Arial, sans-serif; font-weight: 300; letter-spacing: 3px; fill: #4a5a70; }
            .t-mono  { font-family: "SFMono-Regular", Consolas, "Courier New", monospace; fill: #7fd4ff; }
            .t-num   { font-family: "Segoe UI", "Helvetica Neue", Arial, sans-serif; font-weight: 200; fill: #cfeeff; }
            /* Animation contract for every class below: the resting state is
               fully visible. A renderer that never advances the timeline shows
               a complete, slightly-still page — never an empty one. Negative
               delays put looping effects mid-flight at frame 0. */
            @keyframes rise { from { transform: translateY(18px); } to { transform: translateY(0); } }
            .tw { animation: rise 0.75s cubic-bezier(0.16, 0.84, 0.24, 1) both; }
            @keyframes dustRise { from { transform: translateY(0); } to { transform: translateY(-20px); } }
            .dust { animation: dustRise 12s ease-in-out infinite alternate; }
            @keyframes beamFlicker { 0% { opacity: 0.12; } 50% { opacity: 0.28; } 100% { opacity: 0.12; } }
            .beam { animation: beamFlicker 8s ease-in-out infinite; }
            @keyframes beaconPulse { from { opacity: 0.12; } to { opacity: 0.38; } }
            .beacon { animation: beaconPulse 1.5s ease-in-out infinite alternate; }
            @keyframes pulseFade { 0% { opacity: 0.15; } 50% { opacity: 0.6; } 100% { opacity: 0.15; } }
            .pulse { animation: pulseFade 4s ease-in-out infinite; }
            @keyframes scanSweep { from { transform: translateX(0); } to { transform: translateX(1100px); } }
            .scan { animation: scanSweep 14s linear infinite; }
            @media (prefers-reduced-motion: reduce) {
                .tw, .rb1, .rb2, .dust, .beam, .beacon, .pulse, .scan { animation: none; }
            }
        </style>
    </defs>
  <defs>
    <linearGradient id="sigArea" x1="0" y1="0" x2="0" y2="1">
      <stop offset="0%" stop-color="#7fd4ff" stop-opacity="0.14" />
      <stop offset="100%" stop-color="#7fd4ff" stop-opacity="0" />
    </linearGradient>
    <linearGradient id="scanGrad" x1="0" y1="0" x2="1" y2="0">
      <stop offset="0%" stop-color="#cfeeff" stop-opacity="0" />
      <stop offset="50%" stop-color="#cfeeff" stop-opacity="0.1" />
      <stop offset="100%" stop-color="#cfeeff" stop-opacity="0" />
    </linearGradient>
    <clipPath id="plotClip"><rect x="46" y="26" width="908" height="62" /></clipPath>
  </defs>
  <rect width="100%" height="100%" fill="url(#skyFade)" />
  <text x="46" y="24" class="t-sub" font-size="9.5">SIGNAL // COMMIT HOURS · RECENT 534 COMMITS · UTC+3</text>
  <path d="M46,38C58.61,37.59 71.22,40.93 83.83,44.9C96.44,48.87 109.06,57.52 121.67,61.82C134.28,66.11 146.89,69.02 159.5,70.69C172.11,72.36 184.72,71.62 197.33,71.84C209.94,72.05 222.56,71.97 235.17,72C247.78,72.03 260.39,72 273,72C285.61,72 298.22,72 310.83,72C323.44,72 336.06,72.49 348.67,72C361.28,71.51 373.89,70.74 386.5,69.04C399.11,67.35 411.72,64.01 424.33,61.82C436.94,59.63 449.56,57.71 462.17,55.9C474.78,54.1 487.39,52.48 500,50.98C512.61,49.47 525.22,47.64 537.83,46.87C550.44,46.1 563.06,46.05 575.67,46.38C588.28,46.71 600.89,48.38 613.5,48.84C626.11,49.31 638.72,49.85 651.33,49.17C663.94,48.48 676.56,44.62 689.17,44.73C701.78,44.84 714.39,47.58 727,49.83C739.61,52.07 752.22,56.97 764.83,58.2C777.44,59.43 790.06,57.24 802.67,57.22C815.28,57.19 827.89,57.98 840.5,58.04C853.11,58.09 865.72,59.33 878.33,57.55C890.94,55.77 903.56,50.62 916.17,47.36C928.78,44.1 941.39,38.41 954,38L954,86L46,86Z" fill="url(#sigArea)" />
  <g filter="url(#bloom)">
    <path d="M46,38C58.61,37.59 71.22,40.93 83.83,44.9C96.44,48.87 109.06,57.52 121.67,61.82C134.28,66.11 146.89,69.02 159.5,70.69C172.11,72.36 184.72,71.62 197.33,71.84C209.94,72.05 222.56,71.97 235.17,72C247.78,72.03 260.39,72 273,72C285.61,72 298.22,72 310.83,72C323.44,72 336.06,72.49 348.67,72C361.28,71.51 373.89,70.74 386.5,69.04C399.11,67.35 411.72,64.01 424.33,61.82C436.94,59.63 449.56,57.71 462.17,55.9C474.78,54.1 487.39,52.48 500,50.98C512.61,49.47 525.22,47.64 537.83,46.87C550.44,46.1 563.06,46.05 575.67,46.38C588.28,46.71 600.89,48.38 613.5,48.84C626.11,49.31 638.72,49.85 651.33,49.17C663.94,48.48 676.56,44.62 689.17,44.73C701.78,44.84 714.39,47.58 727,49.83C739.61,52.07 752.22,56.97 764.83,58.2C777.44,59.43 790.06,57.24 802.67,57.22C815.28,57.19 827.89,57.98 840.5,58.04C853.11,58.09 865.72,59.33 878.33,57.55C890.94,55.77 903.56,50.62 916.17,47.36C928.78,44.1 941.39,38.41 954,38" fill="none" stroke="#7fd4ff" stroke-width="1.4" />
  </g>
  <circle cx="46" cy="38" r="2" fill="#cfeeff"/>
  <text x="54" y="32" class="t-mono" font-size="9" text-anchor="start">PEAK 00:00</text>
  <g clip-path="url(#plotClip)">
    <rect x="-44" y="26" width="70" height="62" fill="url(#scanGrad)" class="scan" style="animation-delay:-5s"/>
  </g>
  <line x1="46" y1="88" x2="46" y2="92" stroke="#4a5a70" stroke-width="0.75" opacity="0.6"/><text x="46" y="103" class="t-mono" font-size="8" fill="#4a5a70" text-anchor="middle">00</text><line x1="273" y1="88" x2="273" y2="92" stroke="#4a5a70" stroke-width="0.75" opacity="0.6"/><text x="273" y="103" class="t-mono" font-size="8" fill="#4a5a70" text-anchor="middle">06</text><line x1="500" y1="88" x2="500" y2="92" stroke="#4a5a70" stroke-width="0.75" opacity="0.6"/><text x="500" y="103" class="t-mono" font-size="8" fill="#4a5a70" text-anchor="middle">12</text><line x1="727" y1="88" x2="727" y2="92" stroke="#4a5a70" stroke-width="0.75" opacity="0.6"/><text x="727" y="103" class="t-mono" font-size="8" fill="#4a5a70" text-anchor="middle">18</text><line x1="954" y1="88" x2="954" y2="92" stroke="#4a5a70" stroke-width="0.75" opacity="0.6"/><text x="954" y="103" class="t-mono" font-size="8" fill="#4a5a70" text-anchor="middle">24</text>
</svg>