<svg xmlns="http://www.w3.org/2000/svg" viewBox="0 0 1000 116" width="100%" role="img" aria-label="Commit activity by hour of day (UTC+3), from the last 534 commits">
  
    <defs>
        <linearGradient id="skyFade" x1="0" y1="0" x2="0" y2="1">
            <stop offset="0%" stop-color="#020713" />
            <stop offset="55%" stop-color="#01030a" />
            <stop offset="100%" stop-color="#020713" />
        </linearGradient>
        <radialGradient id="horizonGlow" cx="50%" cy="50%" r="50%">
            <stop offset="0%" stop-color="#0a4a86" stop-opacity="0.55" />
            <stop offset="60%" stop-color="#062a52" stop-opacity="0.18" />
            <stop offset="100%" stop-color="#01030a" stop-opacity="0" />
        </radialGradient>
        <filter id="bloom" x="-30%" y="-30%" width="160%" height="160%">
            <feGaussianBlur stdDeviation="4" result="b" />
            <feMerge><feMergeNode in="b" /><feMergeNode in="SourceGraphic" /></feMerge>
        </filter>
        <style>
            .t-title { font-family: "Segoe UI", "Helvetica Neue", Arial, sans-serif; font-weight: 300; letter-spacing: 6px; fill: #cfeeff; }
            .t-sub   { font-family: "Segoe UI", "Helvetica Neue", Arial, sans-serif; font-weight: 300; letter-spacing: 3px; fill: #4a5a70; }
            .t-mono  { font-family: "SFMono-Regular", Consolas, "Courier New", monospace; fill: #7fd4ff; }
            .t-num   { font-family: "Segoe UI", "Helvetica Neue", Arial, sans-serif; font-weight: 200; fill: #cfeeff; }
            /* Animation contract for every class below: the resting state is
               fully visible. A renderer that never advances the timeline shows
               a complete, slightly-still page — never an empty one. Negative
               delays put looping effects mid-flight at frame 0. */
            @keyframes rise { from { transform: translateY(18px); } to { transform: translateY(0); } }
            .tw { animation: rise 0.75s cubic-bezier(0.16, 0.84, 0.24, 1) both; }
            @keyframes dustRise { from { transform: translateY(0); } to { transform: translateY(-20px); } }
            .dust { animation: dustRise 12s ease-in-out infinite alternate; }
            @keyframes beamFlicker { 0% { opacity: 0.12; } 50% { opacity: 0.28; } 100% { opacity: 0.12; } }
            .beam { animation: beamFlicker 8s ease-in-out infinite; }
            @keyframes beaconPulse { from { opacity: 0.12; } to { opacity: 0.38; } }
            .beacon { animation: beaconPulse 1.5s ease-in-out infinite alternate; }
            @keyframes pulseFade { 0% { opacity: 0.15; } 50% { opacity: 0.6; } 100% { opacity: 0.15; } }
            .pulse { animation: pulseFade 4s ease-in-out infinite; }
            @keyframes scanSweep { from { transform: translateX(0); } to { transform: translateX(1100px); } }
            .scan { animation: scanSweep 14s linear infinite; }
            @media (prefers-reduced-motion: reduce) {
                .tw, .rb1, .rb2, .dust, .beam, .beacon, .pulse, .scan { animation: none; }
            }
        </style>
    </defs>
  <defs>
    <linearGradient id="sigArea" x1="0" y1="0" x2="0" y2="1">
      <stop offset="0%" stop-color="#7fd4ff" stop-opacity="0.14" />
      <stop offset="100%" stop-color="#7fd4ff" stop-opacity="0" />
    </linearGradient>
    <linearGradient id="scanGrad" x1="0" y1="0" x2="1" y2="0">
      <stop offset="0%" stop-color="#cfeeff" stop-opacity="0" />
      <stop offset="50%" stop-color="#cfeeff" stop-opacity="0.1" />
      <stop offset="100%" stop-color="#cfeeff" stop-opacity="0" />
    </linearGradient>
    <clipPath id="plotClip"><rect x="46" y="26" width="908" height="62" /></clipPath>
  </defs>
  <rect width="100%" height="100%" fill="url(#skyFade)" />
  <text x="46" y="24" class="t-sub" font-size="9.5">SIGNAL // COMMIT HOURS · RECENT 534 COMMITS · UTC+3</text>
  <path d="M46,38C58.61,37.78 71.22,41.25 83.83,45.24C96.44,49.22 109.06,57.67 121.67,61.9C134.28,66.14 146.89,69 159.5,70.65C172.11,72.31 184.72,71.61 197.33,71.83C209.94,72.06 222.56,71.97 235.17,72C247.78,72.03 260.39,72 273,72C285.61,72 298.22,72 310.83,72C323.44,72 336.06,72.39 348.67,72C361.28,71.61 373.89,71.13 386.5,69.64C399.11,68.16 411.72,65.32 424.33,63.08C436.94,60.83 449.56,58.42 462.17,56.18C474.78,53.93 487.39,51.44 500,49.61C512.61,47.79 525.22,45.94 537.83,45.24C550.44,44.54 563.06,44.9 575.67,45.41C588.28,45.91 600.89,47.82 613.5,48.27C626.11,48.72 638.72,48.97 651.33,48.1C663.94,47.23 676.56,42.94 689.17,43.05C701.78,43.16 714.39,46.3 727,48.77C739.61,51.24 752.22,56.51 764.83,57.86C777.44,59.21 790.06,56.91 802.67,56.85C815.28,56.8 827.89,57.55 840.5,57.52C853.11,57.5 865.72,58.51 878.33,56.68C890.94,54.86 903.56,49.7 916.17,46.58C928.78,43.47 941.39,38.22 954,38L954,86L46,86Z" fill="url(#sigArea)" />
  <g filter="url(#bloom)">
    <path d="M46,38C58.61,37.78 71.22,41.25 83.83,45.24C96.44,49.22 109.06,57.67 121.67,61.9C134.28,66.14 146.89,69 159.5,70.65C172.11,72.31 184.72,71.61 197.33,71.83C209.94,72.06 222.56,71.97 235.17,72C247.78,72.03 260.39,72 273,72C285.61,72 298.22,72 310.83,72C323.44,72 336.06,72.39 348.67,72C361.28,71.61 373.89,71.13 386.5,69.64C399.11,68.16 411.72,65.32 424.33,63.08C436.94,60.83 449.56,58.42 462.17,56.18C474.78,53.93 487.39,51.44 500,49.61C512.61,47.79 525.22,45.94 537.83,45.24C550.44,44.54 563.06,44.9 575.67,45.41C588.28,45.91 600.89,47.82 613.5,48.27C626.11,48.72 638.72,48.97 651.33,48.1C663.94,47.23 676.56,42.94 689.17,43.05C701.78,43.16 714.39,46.3 727,48.77C739.61,51.24 752.22,56.51 764.83,57.86C777.44,59.21 790.06,56.91 802.67,56.85C815.28,56.8 827.89,57.55 840.5,57.52C853.11,57.5 865.72,58.51 878.33,56.68C890.94,54.86 903.56,49.7 916.17,46.58C928.78,43.47 941.39,38.22 954,38" fill="none" stroke="#7fd4ff" stroke-width="1.4" />
  </g>
  <circle cx="46" cy="38" r="2" fill="#cfeeff"/>
  <text x="54" y="32" class="t-mono" font-size="9" text-anchor="start">PEAK 00:00</text>
  <g clip-path="url(#plotClip)">
    <rect x="-44" y="26" width="70" height="62" fill="url(#scanGrad)" class="scan" style="animation-delay:-5s"/>
  </g>
  <line x1="46" y1="88" x2="46" y2="92" stroke="#4a5a70" stroke-width="0.75" opacity="0.6"/><text x="46" y="103" class="t-mono" font-size="8" fill="#4a5a70" text-anchor="middle">00</text><line x1="273" y1="88" x2="273" y2="92" stroke="#4a5a70" stroke-width="0.75" opacity="0.6"/><text x="273" y="103" class="t-mono" font-size="8" fill="#4a5a70" text-anchor="middle">06</text><line x1="500" y1="88" x2="500" y2="92" stroke="#4a5a70" stroke-width="0.75" opacity="0.6"/><text x="500" y="103" class="t-mono" font-size="8" fill="#4a5a70" text-anchor="middle">12</text><line x1="727" y1="88" x2="727" y2="92" stroke="#4a5a70" stroke-width="0.75" opacity="0.6"/><text x="727" y="103" class="t-mono" font-size="8" fill="#4a5a70" text-anchor="middle">18</text><line x1="954" y1="88" x2="954" y2="92" stroke="#4a5a70" stroke-width="0.75" opacity="0.6"/><text x="954" y="103" class="t-mono" font-size="8" fill="#4a5a70" text-anchor="middle">24</text>
</svg>